<svg width="390" height="465" viewBox="0 0 390 465" fill="none" xmlns="http://www.w3.org/2000/svg">
<rect x="0.42041" width="385.833" height="127.724" rx="23.9483" fill="white"/>
<path d="M142.637 58.1548C144.681 56.4519 146.309 55.0362 147.523 53.908C148.736 52.7585 149.747 51.5664 150.556 50.3317C151.365 49.0971 151.77 47.8837 151.77 46.6916C151.77 45.6059 151.514 44.7544 151.003 44.1371C150.492 43.5198 149.705 43.2111 148.64 43.2111C147.576 43.2111 146.756 43.573 146.182 44.2968C145.607 44.9993 145.309 45.9678 145.288 47.2025H140.945C141.03 44.648 141.786 42.7109 143.212 41.391C144.66 40.0712 146.49 39.4113 148.704 39.4113C151.131 39.4113 152.994 40.0606 154.292 41.3591C155.591 42.6364 156.24 44.3287 156.24 46.4361C156.24 48.0966 155.793 49.6825 154.899 51.1939C154.005 52.7053 152.983 54.0251 151.833 55.1533C150.684 56.2603 149.183 57.6014 147.331 59.1766H156.751V62.8806H140.977V59.5598L142.637 58.1548ZM159.568 51.2577C159.568 47.575 160.228 44.6906 161.548 42.6044C162.889 40.5183 165.103 39.4752 168.189 39.4752C171.276 39.4752 173.479 40.5183 174.799 42.6044C176.14 44.6906 176.811 47.575 176.811 51.2577C176.811 54.9617 176.14 57.8675 174.799 59.9749C173.479 62.0824 171.276 63.1361 168.189 63.1361C165.103 63.1361 162.889 62.0824 161.548 59.9749C160.228 57.8675 159.568 54.9617 159.568 51.2577ZM172.404 51.2577C172.404 49.6825 172.298 48.3627 172.085 47.2983C171.893 46.2126 171.489 45.3292 170.871 44.648C170.275 43.9668 169.381 43.6262 168.189 43.6262C166.997 43.6262 166.092 43.9668 165.475 44.648C164.879 45.3292 164.475 46.2126 164.262 47.2983C164.07 48.3627 163.974 49.6825 163.974 51.2577C163.974 52.8756 164.07 54.238 164.262 55.3449C164.453 56.4306 164.858 57.314 165.475 57.9952C166.092 58.6551 166.997 58.9851 168.189 58.9851C169.381 58.9851 170.286 58.6551 170.903 57.9952C171.521 57.314 171.925 56.4306 172.117 55.3449C172.308 54.238 172.404 52.8756 172.404 51.2577ZM180.211 51.2577C180.211 47.575 180.871 44.6906 182.19 42.6044C183.532 40.5183 185.745 39.4752 188.832 39.4752C191.919 39.4752 194.122 40.5183 195.442 42.6044C196.783 44.6906 197.453 47.575 197.453 51.2577C197.453 54.9617 196.783 57.8675 195.442 59.9749C194.122 62.0824 191.919 63.1361 188.832 63.1361C185.745 63.1361 183.532 62.0824 182.19 59.9749C180.871 57.8675 180.211 54.9617 180.211 51.2577ZM193.047 51.2577C193.047 49.6825 192.941 48.3627 192.728 47.2983C192.536 46.2126 192.132 45.3292 191.514 44.648C190.918 43.9668 190.024 43.6262 188.832 43.6262C187.64 43.6262 186.735 43.9668 186.118 44.648C185.522 45.3292 185.117 46.2126 184.905 47.2983C184.713 48.3627 184.617 49.6825 184.617 51.2577C184.617 52.8756 184.713 54.238 184.905 55.3449C185.096 56.4306 185.501 57.314 186.118 57.9952C186.735 58.6551 187.64 58.9851 188.832 58.9851C190.024 58.9851 190.929 58.6551 191.546 57.9952C192.164 57.314 192.568 56.4306 192.76 55.3449C192.951 54.238 193.047 52.8756 193.047 51.2577ZM200.854 51.2577C200.854 47.575 201.514 44.6906 202.833 42.6044C204.174 40.5183 206.388 39.4752 209.475 39.4752C212.562 39.4752 214.765 40.5183 216.085 42.6044C217.426 44.6906 218.096 47.575 218.096 51.2577C218.096 54.9617 217.426 57.8675 216.085 59.9749C214.765 62.0824 212.562 63.1361 209.475 63.1361C206.388 63.1361 204.174 62.0824 202.833 59.9749C201.514 57.8675 200.854 54.9617 200.854 51.2577ZM213.69 51.2577C213.69 49.6825 213.583 48.3627 213.371 47.2983C213.179 46.2126 212.775 45.3292 212.157 44.648C211.561 43.9668 210.667 43.6262 209.475 43.6262C208.283 43.6262 207.378 43.9668 206.761 44.648C206.165 45.3292 205.76 46.2126 205.548 47.2983C205.356 48.3627 205.26 49.6825 205.26 51.2577C205.26 52.8756 205.356 54.238 205.548 55.3449C205.739 56.4306 206.144 57.314 206.761 57.9952C207.378 58.6551 208.283 58.9851 209.475 58.9851C210.667 58.9851 211.572 58.6551 212.189 57.9952C212.806 57.314 213.211 56.4306 213.403 55.3449C213.594 54.238 213.69 52.8756 213.69 51.2577Z" fill="black"/>
<path d="M146.175 92.6185H140.513L139.47 95.5056H137.682L142.375 82.5975H144.331L149.006 95.5056H147.218L146.175 92.6185ZM145.691 91.2402L143.344 84.6836L140.997 91.2402H145.691ZM152.747 86.9561C153.045 86.3724 153.467 85.9192 154.014 85.5963C154.573 85.2735 155.249 85.1121 156.044 85.1121V86.8629H155.597C153.697 86.8629 152.747 87.8936 152.747 89.9549V95.5056H151.052V85.2983H152.747V86.9561ZM160.068 86.6953V92.7116C160.068 93.2084 160.174 93.5623 160.385 93.7734C160.596 93.972 160.962 94.0714 161.484 94.0714H162.732V95.5056H161.204C160.261 95.5056 159.553 95.2883 159.081 94.8537C158.609 94.4191 158.373 93.7051 158.373 92.7116V86.6953H157.051V85.2983H158.373V82.7279H160.068V85.2983H162.732V86.6953H160.068ZM178.383 85.2983L175.198 95.5056H173.447L170.988 87.4031L168.529 95.5056H166.779L163.575 85.2983H165.307L167.654 93.8665L170.187 85.2983H171.919L174.397 93.8851L176.706 85.2983H178.383ZM184.517 95.6733C183.561 95.6733 182.691 95.4559 181.909 95.0213C181.139 94.5867 180.531 93.972 180.084 93.1773C179.649 92.3702 179.432 91.4388 179.432 90.3833C179.432 89.3403 179.655 88.4214 180.102 87.6266C180.562 86.8195 181.183 86.2048 181.965 85.7826C182.747 85.348 183.623 85.1307 184.591 85.1307C185.56 85.1307 186.435 85.348 187.218 85.7826C188 86.2048 188.615 86.8133 189.062 87.608C189.521 88.4027 189.751 89.3278 189.751 90.3833C189.751 91.4388 189.515 92.3702 189.043 93.1773C188.584 93.972 187.956 94.5867 187.162 95.0213C186.367 95.4559 185.485 95.6733 184.517 95.6733ZM184.517 94.1831C185.125 94.1831 185.696 94.0403 186.23 93.7547C186.764 93.4691 187.193 93.0407 187.516 92.4695C187.851 91.8983 188.019 91.2029 188.019 90.3833C188.019 89.5638 187.857 88.8684 187.534 88.2972C187.211 87.726 186.789 87.3038 186.268 87.0306C185.746 86.745 185.181 86.6022 184.573 86.6022C183.952 86.6022 183.381 86.745 182.859 87.0306C182.35 87.3038 181.94 87.726 181.63 88.2972C181.319 88.8684 181.164 89.5638 181.164 90.3833C181.164 91.2153 181.313 91.9169 181.611 92.4881C181.921 93.0593 182.331 93.4878 182.84 93.7734C183.349 94.0465 183.908 94.1831 184.517 94.1831ZM193.674 86.9561C193.972 86.3724 194.395 85.9192 194.941 85.5963C195.5 85.2735 196.177 85.1121 196.971 85.1121V86.8629H196.524C194.624 86.8629 193.674 87.8936 193.674 89.9549V95.5056H191.979V85.2983H193.674V86.9561ZM204.628 95.5056L200.623 90.998V95.5056H198.928V81.722H200.623V89.8245L204.553 85.2983H206.919L202.113 90.3833L206.937 95.5056H204.628ZM212.128 95.6733C211.345 95.6733 210.644 95.5429 210.023 95.2821C209.402 95.0089 208.911 94.6364 208.551 94.1645C208.191 93.6802 207.992 93.1276 207.955 92.5068H209.706C209.756 93.0159 209.992 93.4319 210.414 93.7547C210.849 94.0776 211.414 94.239 212.109 94.239C212.755 94.239 213.264 94.0962 213.636 93.8106C214.009 93.525 214.195 93.1649 214.195 92.7303C214.195 92.2832 213.996 91.9542 213.599 91.7431C213.202 91.5196 212.587 91.3022 211.755 91.0911C210.998 90.8925 210.377 90.6938 209.892 90.4951C209.42 90.284 209.011 89.9798 208.663 89.5824C208.328 89.1726 208.16 88.6387 208.16 87.9805C208.16 87.459 208.315 86.9809 208.626 86.5463C208.936 86.1117 209.377 85.7702 209.948 85.5218C210.519 85.2611 211.171 85.1307 211.904 85.1307C213.034 85.1307 213.947 85.4163 214.642 85.9875C215.337 86.5587 215.71 87.341 215.76 88.3344H214.065C214.027 87.8005 213.81 87.3721 213.413 87.0492C213.028 86.7264 212.506 86.5649 211.848 86.5649C211.24 86.5649 210.755 86.6953 210.395 86.9561C210.035 87.2168 209.855 87.5583 209.855 87.9805C209.855 88.3158 209.961 88.5952 210.172 88.8187C210.395 89.0298 210.668 89.2037 210.991 89.3403C211.327 89.4644 211.786 89.6072 212.37 89.7687C213.102 89.9674 213.698 90.166 214.158 90.3647C214.617 90.551 215.008 90.8366 215.331 91.2215C215.667 91.6065 215.84 92.1094 215.853 92.7303C215.853 93.2891 215.698 93.792 215.387 94.239C215.077 94.6861 214.636 95.04 214.065 95.3007C213.506 95.5491 212.86 95.6733 212.128 95.6733Z" fill="#68676E"/>
<circle cx="63.6174" cy="64.5271" r="36.5877" fill="#6F4FF2"/>
<path d="M73.2397 60.1512C74.6222 60.1512 75.7577 61.2374 75.7577 62.5211V75.1605C75.7577 76.4935 74.6222 77.5304 73.2397 77.5304H53.6388C51.8614 77.5304 50.479 76.1479 50.479 74.3705V58.5713C50.479 56.8433 51.8614 55.4115 53.6388 55.4115H71.8079C73.0916 55.4115 74.1778 56.4977 74.1778 57.7813C74.1778 58.2257 73.7828 58.5713 73.3879 58.5713H54.4288C53.9845 58.5713 53.6388 58.9663 53.6388 59.3613C53.6388 59.8056 53.9845 60.1512 54.4288 60.1512H73.2397ZM71.018 70.4207C71.8573 70.4207 72.5979 69.7295 72.5979 68.8408C72.5979 68.0015 71.8573 67.2609 71.018 67.2609C70.1293 67.2609 69.4381 68.0015 69.4381 68.8408C69.4381 69.7295 70.1293 70.4207 71.018 70.4207Z" fill="white"/>
<rect x="0.42041" y="166.638" width="389.16" height="127.724" rx="23.9483" fill="white"/>
<path d="M142.749 217.252C140.621 216.145 139.556 214.432 139.556 212.111C139.556 210.962 139.844 209.919 140.418 208.982C141.014 208.024 141.898 207.268 143.069 206.715C144.261 206.14 145.708 205.853 147.411 205.853C149.114 205.853 150.551 206.14 151.722 206.715C152.914 207.268 153.798 208.024 154.372 208.982C154.968 209.919 155.266 210.962 155.266 212.111C155.266 213.282 154.979 214.315 154.404 215.209C153.829 216.081 153.063 216.763 152.105 217.252C153.276 217.763 154.191 218.508 154.851 219.487C155.511 220.467 155.841 221.627 155.841 222.968C155.841 224.415 155.469 225.682 154.724 226.768C154 227.832 152.999 228.652 151.722 229.226C150.445 229.801 149.008 230.089 147.411 230.089C145.815 230.089 144.378 229.801 143.101 229.226C141.845 228.652 140.844 227.832 140.099 226.768C139.375 225.682 139.013 224.415 139.013 222.968C139.013 221.627 139.343 220.467 140.003 219.487C140.663 218.487 141.579 217.742 142.749 217.252ZM150.924 212.75C150.924 211.707 150.604 210.898 149.966 210.323C149.348 209.748 148.497 209.461 147.411 209.461C146.347 209.461 145.495 209.748 144.857 210.323C144.24 210.898 143.931 211.718 143.931 212.782C143.931 213.74 144.25 214.506 144.889 215.081C145.549 215.656 146.39 215.943 147.411 215.943C148.433 215.943 149.274 215.656 149.934 215.081C150.594 214.485 150.924 213.708 150.924 212.75ZM147.411 219.2C146.198 219.2 145.208 219.509 144.442 220.126C143.697 220.743 143.324 221.627 143.324 222.776C143.324 223.841 143.686 224.713 144.41 225.395C145.155 226.055 146.155 226.385 147.411 226.385C148.667 226.385 149.657 226.044 150.381 225.363C151.105 224.682 151.467 223.819 151.467 222.776C151.467 221.648 151.094 220.775 150.349 220.158C149.604 219.519 148.625 219.2 147.411 219.2ZM164.545 223.032C164.715 223.968 165.098 224.692 165.694 225.203C166.312 225.693 167.131 225.937 168.153 225.937C169.473 225.937 170.431 225.395 171.027 224.309C171.623 223.202 171.921 221.35 171.921 218.753C171.431 219.434 170.739 219.966 169.845 220.35C168.973 220.733 168.025 220.924 167.004 220.924C165.641 220.924 164.406 220.648 163.3 220.094C162.214 219.519 161.352 218.679 160.713 217.572C160.074 216.443 159.755 215.081 159.755 213.484C159.755 211.121 160.458 209.248 161.863 207.865C163.268 206.46 165.183 205.757 167.61 205.757C170.633 205.757 172.762 206.726 173.996 208.663C175.252 210.6 175.88 213.516 175.88 217.412C175.88 220.179 175.636 222.446 175.146 224.213C174.678 225.98 173.858 227.321 172.687 228.237C171.538 229.152 169.962 229.61 167.961 229.61C166.386 229.61 165.045 229.312 163.938 228.715C162.831 228.098 161.98 227.3 161.384 226.321C160.809 225.32 160.479 224.224 160.394 223.032H164.545ZM167.93 217.284C169.036 217.284 169.909 216.944 170.548 216.262C171.186 215.581 171.506 214.666 171.506 213.516C171.506 212.26 171.165 211.292 170.484 210.611C169.824 209.908 168.919 209.557 167.77 209.557C166.62 209.557 165.705 209.919 165.024 210.643C164.364 211.345 164.034 212.282 164.034 213.452C164.034 214.581 164.353 215.507 164.992 216.23C165.652 216.933 166.631 217.284 167.93 217.284Z" fill="black"/>
<path d="M141.256 249.537C142.672 249.537 143.895 249.804 144.926 250.338C145.969 250.86 146.764 251.611 147.31 252.592C147.869 253.573 148.148 254.728 148.148 256.056C148.148 257.385 147.869 258.54 147.31 259.521C146.764 260.489 145.969 261.235 144.926 261.756C143.895 262.265 142.672 262.52 141.256 262.52H137.215V249.537H141.256ZM141.256 261.123C142.933 261.123 144.212 260.682 145.093 259.8C145.975 258.906 146.416 257.658 146.416 256.056C146.416 254.442 145.969 253.182 145.075 252.275C144.193 251.369 142.92 250.915 141.256 250.915H138.91V261.123H141.256ZM154.836 262.687C153.88 262.687 153.01 262.47 152.228 262.035C151.458 261.601 150.85 260.986 150.403 260.191C149.968 259.384 149.751 258.453 149.751 257.398C149.751 256.354 149.974 255.436 150.421 254.641C150.881 253.834 151.502 253.219 152.284 252.797C153.066 252.362 153.942 252.145 154.91 252.145C155.879 252.145 156.754 252.362 157.537 252.797C158.319 253.219 158.934 253.827 159.381 254.622C159.84 255.417 160.07 256.342 160.07 257.398C160.07 258.453 159.834 259.384 159.362 260.191C158.902 260.986 158.275 261.601 157.481 262.035C156.686 262.47 155.804 262.687 154.836 262.687ZM154.836 261.197C155.444 261.197 156.015 261.054 156.549 260.769C157.083 260.483 157.512 260.055 157.835 259.484C158.17 258.912 158.337 258.217 158.337 257.398C158.337 256.578 158.176 255.883 157.853 255.311C157.53 254.74 157.108 254.318 156.587 254.045C156.065 253.759 155.5 253.616 154.892 253.616C154.271 253.616 153.699 253.759 153.178 254.045C152.669 254.318 152.259 254.74 151.949 255.311C151.638 255.883 151.483 256.578 151.483 257.398C151.483 258.229 151.632 258.931 151.93 259.502C152.24 260.074 152.65 260.502 153.159 260.788C153.668 261.061 154.227 261.197 154.836 261.197ZM175.896 252.312L172.711 262.52H170.96L168.501 254.417L166.042 262.52H164.291L161.088 252.312H162.82L165.167 260.881L167.7 252.312H169.432L171.91 260.899L174.219 252.312H175.896ZM182.551 252.126C183.793 252.126 184.799 252.505 185.569 253.262C186.339 254.007 186.723 255.088 186.723 256.503V262.52H185.047V256.746C185.047 255.727 184.793 254.951 184.283 254.417C183.774 253.871 183.079 253.598 182.197 253.598C181.303 253.598 180.589 253.877 180.055 254.436C179.534 254.995 179.273 255.808 179.273 256.876V262.52H177.578V252.312H179.273V253.765C179.608 253.244 180.061 252.84 180.633 252.555C181.216 252.269 181.856 252.126 182.551 252.126ZM191.187 248.736V262.52H189.492V248.736H191.187ZM198.528 262.687C197.572 262.687 196.702 262.47 195.92 262.035C195.15 261.601 194.542 260.986 194.095 260.191C193.66 259.384 193.443 258.453 193.443 257.398C193.443 256.354 193.666 255.436 194.113 254.641C194.573 253.834 195.194 253.219 195.976 252.797C196.758 252.362 197.634 252.145 198.602 252.145C199.571 252.145 200.446 252.362 201.229 252.797C202.011 253.219 202.626 253.827 203.073 254.622C203.532 255.417 203.762 256.342 203.762 257.398C203.762 258.453 203.526 259.384 203.054 260.191C202.595 260.986 201.968 261.601 201.173 262.035C200.378 262.47 199.496 262.687 198.528 262.687ZM198.528 261.197C199.136 261.197 199.707 261.054 200.241 260.769C200.775 260.483 201.204 260.055 201.527 259.484C201.862 258.912 202.03 258.217 202.03 257.398C202.03 256.578 201.868 255.883 201.545 255.311C201.222 254.74 200.8 254.318 200.279 254.045C199.757 253.759 199.192 253.616 198.584 253.616C197.963 253.616 197.392 253.759 196.87 254.045C196.361 254.318 195.951 254.74 195.641 255.311C195.33 255.883 195.175 256.578 195.175 257.398C195.175 258.229 195.324 258.931 195.622 259.502C195.933 260.074 196.342 260.502 196.851 260.788C197.361 261.061 197.919 261.197 198.528 261.197ZM205.357 257.379C205.357 256.336 205.568 255.423 205.99 254.641C206.413 253.846 206.99 253.231 207.723 252.797C208.468 252.362 209.294 252.145 210.2 252.145C211.094 252.145 211.87 252.337 212.528 252.722C213.186 253.107 213.677 253.591 214 254.175V252.312H215.713V262.52H214V260.62C213.665 261.216 213.162 261.713 212.491 262.11C211.833 262.495 211.063 262.687 210.181 262.687C209.275 262.687 208.455 262.464 207.723 262.017C206.99 261.57 206.413 260.943 205.99 260.136C205.568 259.328 205.357 258.41 205.357 257.379ZM214 257.398C214 256.628 213.845 255.957 213.534 255.386C213.224 254.815 212.802 254.38 212.268 254.082C211.746 253.772 211.169 253.616 210.535 253.616C209.902 253.616 209.325 253.765 208.803 254.063C208.282 254.361 207.866 254.796 207.555 255.367C207.245 255.938 207.089 256.609 207.089 257.379C207.089 258.161 207.245 258.844 207.555 259.428C207.866 259.999 208.282 260.44 208.803 260.75C209.325 261.048 209.902 261.197 210.535 261.197C211.169 261.197 211.746 261.048 212.268 260.75C212.802 260.44 213.224 259.999 213.534 259.428C213.845 258.844 214 258.167 214 257.398ZM217.945 257.379C217.945 256.336 218.156 255.423 218.578 254.641C219 253.846 219.578 253.231 220.31 252.797C221.055 252.362 221.887 252.145 222.806 252.145C223.601 252.145 224.34 252.331 225.023 252.704C225.706 253.064 226.227 253.542 226.587 254.138V248.736H228.301V262.52H226.587V260.601C226.252 261.21 225.755 261.713 225.097 262.11C224.439 262.495 223.669 262.687 222.787 262.687C221.881 262.687 221.055 262.464 220.31 262.017C219.578 261.57 219 260.943 218.578 260.136C218.156 259.328 217.945 258.41 217.945 257.379ZM226.587 257.398C226.587 256.628 226.432 255.957 226.122 255.386C225.811 254.815 225.389 254.38 224.855 254.082C224.333 253.772 223.756 253.616 223.123 253.616C222.489 253.616 221.912 253.765 221.39 254.063C220.869 254.361 220.453 254.796 220.143 255.367C219.832 255.938 219.677 256.609 219.677 257.379C219.677 258.161 219.832 258.844 220.143 259.428C220.453 259.999 220.869 260.44 221.39 260.75C221.912 261.048 222.489 261.197 223.123 261.197C223.756 261.197 224.333 261.048 224.855 260.75C225.389 260.44 225.811 259.999 226.122 259.428C226.432 258.844 226.587 258.167 226.587 257.398ZM234.779 262.687C233.997 262.687 233.295 262.557 232.674 262.296C232.053 262.023 231.563 261.651 231.203 261.179C230.842 260.694 230.644 260.142 230.606 259.521H232.357C232.407 260.03 232.643 260.446 233.065 260.769C233.5 261.092 234.065 261.253 234.76 261.253C235.406 261.253 235.915 261.11 236.288 260.825C236.66 260.539 236.846 260.179 236.846 259.744C236.846 259.297 236.648 258.968 236.25 258.757C235.853 258.534 235.238 258.316 234.406 258.105C233.649 257.907 233.028 257.708 232.544 257.509C232.072 257.298 231.662 256.994 231.314 256.597C230.979 256.187 230.811 255.653 230.811 254.995C230.811 254.473 230.967 253.995 231.277 253.56C231.587 253.126 232.028 252.784 232.6 252.536C233.171 252.275 233.823 252.145 234.555 252.145C235.685 252.145 236.598 252.43 237.293 253.002C237.989 253.573 238.361 254.355 238.411 255.349H236.716C236.679 254.815 236.461 254.386 236.064 254.063C235.679 253.741 235.158 253.579 234.499 253.579C233.891 253.579 233.407 253.709 233.047 253.97C232.686 254.231 232.506 254.572 232.506 254.995C232.506 255.33 232.612 255.609 232.823 255.833C233.047 256.044 233.32 256.218 233.643 256.354C233.978 256.479 234.437 256.621 235.021 256.783C235.754 256.982 236.35 257.18 236.809 257.379C237.269 257.565 237.66 257.851 237.983 258.236C238.318 258.621 238.492 259.124 238.504 259.744C238.504 260.303 238.349 260.806 238.038 261.253C237.728 261.7 237.287 262.054 236.716 262.315C236.157 262.563 235.511 262.687 234.779 262.687Z" fill="#68676E"/>
<circle cx="63.6174" cy="231.165" r="36.5877" fill="#DC3546"/>
<path d="M65.2334 241.453C65.579 242.144 66.2703 242.588 67.1096 242.588H73.4293V244.563C73.4293 245.254 72.8862 245.748 72.2443 245.748H55.6552C54.9639 245.748 54.4702 245.254 54.4702 244.563V221.654C54.4702 221.012 54.9639 220.469 55.6552 220.469H65.5297V227.184C65.5297 227.875 66.0234 228.369 66.7146 228.369H73.4293V230.689L67.1096 236.96V241.008C66.9121 241.008 66.7146 240.909 66.6159 240.712C66.0234 239.527 64.3447 239.231 63.3573 240.021L62.6661 237.947C62.5179 237.453 62.0736 237.157 61.5799 237.157C61.0368 237.157 60.5924 237.453 60.4443 237.947L59.5556 240.663C59.4568 240.86 59.2594 241.008 59.0125 241.008H58.42C57.9757 241.008 57.6301 241.403 57.6301 241.798C57.6301 242.243 57.9757 242.588 58.42 242.588H59.0125C59.9506 242.588 60.7405 242.045 61.0368 241.156L61.5799 239.576L62.3698 242.094C62.6167 242.736 63.5054 242.786 63.851 242.193L64.1966 241.403C64.3447 241.156 64.5916 241.107 64.7397 241.107C64.8385 241.107 65.0853 241.156 65.2334 241.453ZM73.4293 226.493V226.789H67.1096V220.469H67.4058C67.7021 220.469 67.9983 220.617 68.2452 220.815L73.0837 225.653C73.2812 225.9 73.4293 226.196 73.4293 226.493ZM68.6895 237.602L76.6879 229.653L80.0452 233.01L72.0468 241.008H68.6895V237.602ZM82.5138 228.764C83.0075 229.258 83.0075 230.048 82.5138 230.541L81.1808 231.874L77.8234 228.517L79.1565 227.184C79.6502 226.69 80.4402 226.69 80.9339 227.184L82.5138 228.764Z" fill="white"/>
<rect x="0.42041" y="337" width="385.833" height="127.724" rx="23.9483" fill="white"/>
<path d="M139.488 387.238C137.359 386.131 136.295 384.418 136.295 382.097C136.295 380.948 136.582 379.905 137.157 378.968C137.753 378.01 138.636 377.255 139.807 376.701C140.999 376.126 142.447 375.839 144.15 375.839C145.853 375.839 147.29 376.126 148.46 376.701C149.653 377.255 150.536 378.01 151.111 378.968C151.707 379.905 152.005 380.948 152.005 382.097C152.005 383.268 151.717 384.301 151.143 385.195C150.568 386.068 149.802 386.749 148.844 387.238C150.014 387.749 150.93 388.494 151.59 389.474C152.25 390.453 152.58 391.613 152.58 392.954C152.58 394.402 152.207 395.668 151.462 396.754C150.738 397.818 149.738 398.638 148.46 399.212C147.183 399.787 145.746 400.075 144.15 400.075C142.553 400.075 141.116 399.787 139.839 399.212C138.583 398.638 137.583 397.818 136.838 396.754C136.114 395.668 135.752 394.402 135.752 392.954C135.752 391.613 136.082 390.453 136.742 389.474C137.402 388.473 138.317 387.728 139.488 387.238ZM147.662 382.736C147.662 381.693 147.343 380.884 146.704 380.309C146.087 379.735 145.235 379.447 144.15 379.447C143.085 379.447 142.234 379.735 141.595 380.309C140.978 380.884 140.669 381.704 140.669 382.768C140.669 383.726 140.989 384.492 141.627 385.067C142.287 385.642 143.128 385.929 144.15 385.929C145.172 385.929 146.012 385.642 146.672 385.067C147.332 384.471 147.662 383.694 147.662 382.736ZM144.15 389.186C142.936 389.186 141.947 389.495 141.18 390.112C140.435 390.729 140.063 391.613 140.063 392.762C140.063 393.827 140.424 394.7 141.148 395.381C141.893 396.041 142.894 396.371 144.15 396.371C145.406 396.371 146.396 396.03 147.119 395.349C147.843 394.668 148.205 393.805 148.205 392.762C148.205 391.634 147.832 390.761 147.087 390.144C146.342 389.505 145.363 389.186 144.15 389.186ZM157.515 394.519C159.559 392.816 161.187 391.4 162.401 390.272C163.614 389.122 164.625 387.93 165.434 386.696C166.243 385.461 166.648 384.247 166.648 383.055C166.648 381.97 166.392 381.118 165.881 380.501C165.37 379.884 164.583 379.575 163.518 379.575C162.454 379.575 161.635 379.937 161.06 380.661C160.485 381.363 160.187 382.332 160.166 383.566H155.823C155.908 381.012 156.664 379.075 158.09 377.755C159.538 376.435 161.368 375.775 163.582 375.775C166.009 375.775 167.872 376.424 169.17 377.723C170.469 379 171.118 380.692 171.118 382.8C171.118 384.46 170.671 386.046 169.777 387.558C168.883 389.069 167.861 390.389 166.712 391.517C165.562 392.624 164.061 393.965 162.209 395.54H171.629V399.244H155.855V395.924L157.515 394.519ZM174.446 387.622C174.446 383.939 175.106 381.054 176.426 378.968C177.767 376.882 179.981 375.839 183.067 375.839C186.154 375.839 188.357 376.882 189.677 378.968C191.018 381.054 191.689 383.939 191.689 387.622C191.689 391.326 191.018 394.231 189.677 396.339C188.357 398.446 186.154 399.5 183.067 399.5C179.981 399.5 177.767 398.446 176.426 396.339C175.106 394.231 174.446 391.326 174.446 387.622ZM187.282 387.622C187.282 386.046 187.176 384.726 186.963 383.662C186.771 382.576 186.367 381.693 185.749 381.012C185.153 380.331 184.259 379.99 183.067 379.99C181.875 379.99 180.97 380.331 180.353 381.012C179.757 381.693 179.353 382.576 179.14 383.662C178.948 384.726 178.852 386.046 178.852 387.622C178.852 389.239 178.948 390.602 179.14 391.709C179.331 392.794 179.736 393.678 180.353 394.359C180.97 395.019 181.875 395.349 183.067 395.349C184.259 395.349 185.164 395.019 185.781 394.359C186.399 393.678 186.803 392.794 186.995 391.709C187.186 390.602 187.282 389.239 187.282 387.622ZM218.375 377.276V380.884H212.436V399.564H207.966V380.884H202.027V377.276H218.375ZM234.984 399.564L230.163 392.06L225.788 399.564H220.743L227.768 388.324L220.647 377.276H225.788L230.61 384.748L234.952 377.276H239.998L233.005 388.484L240.125 399.564H234.984ZM251.319 377.276C253.66 377.276 255.714 377.734 257.481 378.649C259.269 379.564 260.642 380.873 261.6 382.576C262.58 384.258 263.069 386.217 263.069 388.452C263.069 390.687 262.58 392.645 261.6 394.327C260.642 395.987 259.269 397.275 257.481 398.191C255.714 399.106 253.66 399.564 251.319 399.564H243.527V377.276H251.319ZM251.159 395.764C253.501 395.764 255.31 395.125 256.587 393.848C257.864 392.571 258.503 390.772 258.503 388.452C258.503 386.131 257.864 384.322 256.587 383.023C255.31 381.704 253.501 381.044 251.159 381.044H247.998V395.764H251.159ZM265.33 388.388C265.33 386.195 265.819 384.237 266.799 382.513C267.799 380.767 269.151 379.415 270.854 378.457C272.578 377.478 274.505 376.988 276.633 376.988C279.124 376.988 281.306 377.627 283.179 378.904C285.053 380.182 286.362 381.948 287.107 384.205H281.966C281.455 383.141 280.731 382.342 279.795 381.81C278.879 381.278 277.815 381.012 276.602 381.012C275.303 381.012 274.143 381.32 273.121 381.938C272.121 382.534 271.333 383.385 270.758 384.492C270.205 385.599 269.928 386.898 269.928 388.388C269.928 389.857 270.205 391.155 270.758 392.283C271.333 393.39 272.121 394.253 273.121 394.87C274.143 395.466 275.303 395.764 276.602 395.764C277.815 395.764 278.879 395.498 279.795 394.966C280.731 394.412 281.455 393.603 281.966 392.539H287.107C286.362 394.817 285.053 396.594 283.179 397.871C281.327 399.127 279.145 399.755 276.633 399.755C274.505 399.755 272.578 399.276 270.854 398.318C269.151 397.339 267.799 395.987 266.799 394.263C265.819 392.539 265.33 390.58 265.33 388.388Z" fill="black"/>
<path d="M144.397 432.506L141.305 427.197H139.256V432.506H137.561V419.523H141.752C142.733 419.523 143.559 419.691 144.229 420.026C144.912 420.361 145.422 420.815 145.757 421.386C146.092 421.957 146.26 422.609 146.26 423.342C146.26 424.236 145.999 425.024 145.477 425.707C144.968 426.39 144.198 426.843 143.168 427.067L146.427 432.506H144.397ZM139.256 425.838H141.752C142.671 425.838 143.36 425.614 143.82 425.167C144.279 424.708 144.509 424.099 144.509 423.342C144.509 422.572 144.279 421.976 143.82 421.554C143.373 421.131 142.683 420.92 141.752 420.92H139.256V425.838ZM158.207 427.011C158.207 427.334 158.188 427.675 158.151 428.036H149.992C150.055 429.041 150.396 429.83 151.017 430.401C151.65 430.96 152.414 431.239 153.308 431.239C154.041 431.239 154.649 431.072 155.133 430.736C155.63 430.389 155.978 429.929 156.176 429.358H158.002C157.729 430.339 157.182 431.14 156.363 431.761C155.543 432.369 154.525 432.673 153.308 432.673C152.339 432.673 151.47 432.456 150.7 432.022C149.943 431.587 149.347 430.972 148.912 430.178C148.477 429.37 148.26 428.439 148.26 427.384C148.26 426.328 148.471 425.403 148.893 424.608C149.316 423.814 149.906 423.205 150.663 422.783C151.433 422.348 152.315 422.131 153.308 422.131C154.277 422.131 155.133 422.342 155.878 422.764C156.623 423.186 157.195 423.77 157.592 424.515C158.002 425.248 158.207 426.08 158.207 427.011ZM156.456 426.657C156.456 426.011 156.313 425.459 156.027 424.999C155.742 424.528 155.351 424.174 154.854 423.938C154.37 423.689 153.829 423.565 153.233 423.565C152.377 423.565 151.644 423.838 151.036 424.385C150.439 424.931 150.098 425.689 150.011 426.657H156.456ZM164.244 430.941L167.41 422.299H169.217L165.212 432.506H163.238L159.233 422.299H161.059L164.244 430.941ZM180.198 427.011C180.198 427.334 180.18 427.675 180.142 428.036H171.984C172.046 429.041 172.388 429.83 173.008 430.401C173.642 430.96 174.405 431.239 175.3 431.239C176.032 431.239 176.641 431.072 177.125 430.736C177.622 430.389 177.969 429.929 178.168 429.358H179.993C179.72 430.339 179.174 431.14 178.354 431.761C177.535 432.369 176.516 432.673 175.3 432.673C174.331 432.673 173.462 432.456 172.692 432.022C171.934 431.587 171.338 430.972 170.904 430.178C170.469 429.37 170.252 428.439 170.252 427.384C170.252 426.328 170.463 425.403 170.885 424.608C171.307 423.814 171.897 423.205 172.655 422.783C173.424 422.348 174.306 422.131 175.3 422.131C176.268 422.131 177.125 422.342 177.87 422.764C178.615 423.186 179.186 423.77 179.584 424.515C179.993 425.248 180.198 426.08 180.198 427.011ZM178.447 426.657C178.447 426.011 178.305 425.459 178.019 424.999C177.733 424.528 177.342 424.174 176.846 423.938C176.361 423.689 175.821 423.565 175.225 423.565C174.368 423.565 173.636 423.838 173.027 424.385C172.431 424.931 172.09 425.689 172.003 426.657H178.447ZM187.409 422.112C188.651 422.112 189.656 422.491 190.426 423.249C191.196 423.994 191.581 425.074 191.581 426.49V432.506H189.905V426.732C189.905 425.713 189.65 424.937 189.141 424.403C188.632 423.857 187.937 423.584 187.055 423.584C186.161 423.584 185.447 423.863 184.913 424.422C184.391 424.981 184.131 425.794 184.131 426.862V432.506H182.436V422.299H184.131V423.751C184.466 423.23 184.919 422.826 185.49 422.541C186.074 422.255 186.714 422.112 187.409 422.112ZM203.402 422.299V432.506H201.707V430.997C201.385 431.519 200.931 431.928 200.348 432.226C199.777 432.512 199.143 432.655 198.448 432.655C197.653 432.655 196.939 432.493 196.306 432.171C195.673 431.835 195.17 431.339 194.797 430.68C194.437 430.022 194.257 429.221 194.257 428.278V422.299H195.933V428.054C195.933 429.06 196.188 429.836 196.697 430.382C197.206 430.916 197.901 431.183 198.783 431.183C199.69 431.183 200.404 430.904 200.925 430.345C201.447 429.786 201.707 428.973 201.707 427.905V422.299H203.402ZM215.578 427.011C215.578 427.334 215.559 427.675 215.522 428.036H207.363C207.425 429.041 207.767 429.83 208.388 430.401C209.021 430.96 209.785 431.239 210.679 431.239C211.412 431.239 212.02 431.072 212.504 430.736C213.001 430.389 213.349 429.929 213.547 429.358H215.373C215.1 430.339 214.553 431.14 213.734 431.761C212.914 432.369 211.896 432.673 210.679 432.673C209.71 432.673 208.841 432.456 208.071 432.022C207.314 431.587 206.718 430.972 206.283 430.178C205.848 429.37 205.631 428.439 205.631 427.384C205.631 426.328 205.842 425.403 206.264 424.608C206.687 423.814 207.276 423.205 208.034 422.783C208.804 422.348 209.685 422.131 210.679 422.131C211.647 422.131 212.504 422.342 213.249 422.764C213.994 423.186 214.566 423.77 214.963 424.515C215.373 425.248 215.578 426.08 215.578 427.011ZM213.827 426.657C213.827 426.011 213.684 425.459 213.398 424.999C213.113 424.528 212.722 424.174 212.225 423.938C211.741 423.689 211.2 423.565 210.604 423.565C209.748 423.565 209.015 423.838 208.406 424.385C207.81 424.931 207.469 425.689 207.382 426.657H213.827Z" fill="#68676E"/>
<circle cx="63.6174" cy="401.527" r="36.5877" fill="#50BB25"/>
<path d="M74.5703 397.151C75.9527 397.151 77.0883 398.237 77.0883 399.521V412.16C77.0883 413.494 75.9527 414.53 74.5703 414.53H54.9694C53.192 414.53 51.8096 413.148 51.8096 411.371V395.571C51.8096 393.843 53.192 392.411 54.9694 392.411H73.1385C74.4222 392.411 75.5084 393.498 75.5084 394.781C75.5084 395.226 75.1134 395.571 74.7184 395.571H55.7594C55.315 395.571 54.9694 395.966 54.9694 396.361C54.9694 396.806 55.315 397.151 55.7594 397.151H74.5703ZM72.3486 407.421C73.1879 407.421 73.9285 406.729 73.9285 405.841C73.9285 405.001 73.1879 404.261 72.3486 404.261C71.4598 404.261 70.7686 405.001 70.7686 405.841C70.7686 406.729 71.4598 407.421 72.3486 407.421Z" fill="white"/>
</svg>
