<svg width="1193" height="44" viewBox="0 0 1193 44" fill="none" xmlns="http://www.w3.org/2000/svg">
<rect y="2" width="132" height="38" rx="19" fill="#3D00B7"/>
<path d="M20.364 25L23.976 15.2H25.6L29.184 25H27.616L26.776 22.606H22.772L21.932 25H20.364ZM23.192 21.43H26.356L24.774 16.964L23.192 21.43ZM30.4946 25V14.92H31.9786V25H30.4946ZM33.8579 25V14.92H35.3419V25H33.8579ZM45.1725 25.168C44.2019 25.168 43.3619 24.958 42.6525 24.538C41.9525 24.1087 41.4112 23.516 41.0285 22.76C40.6459 21.9947 40.4545 21.1127 40.4545 20.114C40.4545 19.106 40.6459 18.224 41.0285 17.468C41.4112 16.7027 41.9525 16.1053 42.6525 15.676C43.3619 15.2467 44.2019 15.032 45.1725 15.032C46.3205 15.032 47.2585 15.312 47.9865 15.872C48.7145 16.432 49.1765 17.216 49.3725 18.224H47.7205C47.5899 17.6547 47.3099 17.202 46.8805 16.866C46.4512 16.53 45.8772 16.362 45.1585 16.362C44.1785 16.362 43.4039 16.698 42.8345 17.37C42.2652 18.0327 41.9805 18.9473 41.9805 20.114C41.9805 21.2713 42.2652 22.1813 42.8345 22.844C43.4039 23.5067 44.1785 23.838 45.1585 23.838C45.8772 23.838 46.4512 23.6793 46.8805 23.362C47.3099 23.0447 47.5899 22.6107 47.7205 22.06H49.3725C49.1765 23.0307 48.7145 23.7913 47.9865 24.342C47.2585 24.8927 46.3205 25.168 45.1725 25.168ZM53.2998 25.168C52.7118 25.168 52.2264 25.07 51.8438 24.874C51.4611 24.678 51.1764 24.4213 50.9898 24.104C50.8031 23.7773 50.7098 23.4227 50.7098 23.04C50.7098 22.368 50.9711 21.836 51.4938 21.444C52.0164 21.052 52.7631 20.856 53.7338 20.856H55.5538V20.73C55.5538 20.1887 55.4044 19.7827 55.1058 19.512C54.8164 19.2413 54.4384 19.106 53.9718 19.106C53.5611 19.106 53.2018 19.2087 52.8938 19.414C52.5951 19.61 52.4131 19.904 52.3478 20.296H50.8638C50.9104 19.792 51.0784 19.3627 51.3678 19.008C51.6664 18.644 52.0398 18.3687 52.4878 18.182C52.9451 17.986 53.4444 17.888 53.9858 17.888C54.9564 17.888 55.7078 18.1447 56.2398 18.658C56.7718 19.162 57.0378 19.8527 57.0378 20.73V25H55.7498L55.6238 23.81C55.4278 24.1927 55.1431 24.5147 54.7698 24.776C54.3964 25.0373 53.9064 25.168 53.2998 25.168ZM53.5938 23.964C53.9951 23.964 54.3311 23.8707 54.6018 23.684C54.8818 23.488 55.0964 23.2313 55.2458 22.914C55.4044 22.5967 55.5024 22.2467 55.5398 21.864H53.8878C53.2998 21.864 52.8798 21.9667 52.6278 22.172C52.3851 22.3773 52.2638 22.634 52.2638 22.942C52.2638 23.2593 52.3804 23.5113 52.6138 23.698C52.8564 23.8753 53.1831 23.964 53.5938 23.964ZM61.5434 25C60.862 25 60.3207 24.8367 59.9194 24.51C59.518 24.174 59.3174 23.5813 59.3174 22.732V19.302H58.1274V18.056H59.3174L59.4994 16.292H60.8014V18.056H62.7614V19.302H60.8014V22.732C60.8014 23.1147 60.8807 23.3807 61.0394 23.53C61.2074 23.67 61.492 23.74 61.8934 23.74H62.6914V25H61.5434ZM67.3618 25.168C66.6804 25.168 66.0738 25.0187 65.5418 24.72C65.0191 24.412 64.6084 23.9873 64.3098 23.446C64.0111 22.9047 63.8618 22.2747 63.8618 21.556C63.8618 20.828 64.0064 20.1887 64.2958 19.638C64.5944 19.0873 65.0051 18.658 65.5278 18.35C66.0598 18.042 66.6758 17.888 67.3758 17.888C68.0571 17.888 68.6498 18.042 69.1538 18.35C69.6578 18.6487 70.0498 19.05 70.3298 19.554C70.6098 20.058 70.7498 20.6133 70.7498 21.22C70.7498 21.3133 70.7451 21.416 70.7358 21.528C70.7358 21.6307 70.7311 21.7473 70.7218 21.878H65.3178C65.3644 22.55 65.5838 23.0633 65.9758 23.418C66.3771 23.7633 66.8391 23.936 67.3618 23.936C67.7818 23.936 68.1318 23.8427 68.4118 23.656C68.7011 23.46 68.9158 23.1987 69.0558 22.872H70.5398C70.3531 23.5253 69.9798 24.0713 69.4198 24.51C68.8691 24.9487 68.1831 25.168 67.3618 25.168ZM67.3618 19.106C66.8671 19.106 66.4284 19.2553 66.0458 19.554C65.6631 19.8433 65.4298 20.282 65.3458 20.87H69.2658C69.2378 20.3287 69.0464 19.8993 68.6918 19.582C68.3371 19.2647 67.8938 19.106 67.3618 19.106ZM75.0359 22.872C74.6719 22.872 74.3359 22.83 74.0279 22.746L73.4259 23.334C73.5285 23.3993 73.6545 23.4553 73.8039 23.502C73.9532 23.5487 74.1632 23.5907 74.4339 23.628C74.7045 23.6653 75.0732 23.7027 75.5399 23.74C76.4639 23.824 77.1312 24.048 77.5419 24.412C77.9525 24.7667 78.1579 25.2427 78.1579 25.84C78.1579 26.2507 78.0459 26.638 77.8219 27.002C77.6072 27.3753 77.2665 27.674 76.7999 27.898C76.3425 28.1313 75.7545 28.248 75.0359 28.248C74.0652 28.248 73.2765 28.0613 72.6699 27.688C72.0725 27.324 71.7739 26.7687 71.7739 26.022C71.7739 25.7327 71.8485 25.4433 71.9979 25.154C72.1565 24.874 72.4039 24.608 72.7399 24.356C72.5439 24.272 72.3712 24.1833 72.2219 24.09C72.0819 23.9873 71.9559 23.8847 71.8439 23.782V23.446L73.0479 22.214C72.5065 21.7473 72.2359 21.136 72.2359 20.38C72.2359 19.9227 72.3432 19.5073 72.5579 19.134C72.7819 18.7513 73.1039 18.448 73.5239 18.224C73.9439 18 74.4479 17.888 75.0359 17.888C75.4279 17.888 75.7919 17.944 76.1279 18.056H78.7179V19.036L77.4859 19.106C77.7099 19.4887 77.8219 19.9133 77.8219 20.38C77.8219 20.8467 77.7099 21.2667 77.4859 21.64C77.2712 22.0133 76.9539 22.312 76.5339 22.536C76.1232 22.76 75.6239 22.872 75.0359 22.872ZM75.0359 21.71C75.4652 21.71 75.8105 21.598 76.0719 21.374C76.3425 21.1407 76.4779 20.814 76.4779 20.394C76.4779 19.9647 76.3425 19.638 76.0719 19.414C75.8105 19.19 75.4652 19.078 75.0359 19.078C74.5972 19.078 74.2425 19.19 73.9719 19.414C73.7105 19.638 73.5799 19.9647 73.5799 20.394C73.5799 20.814 73.7105 21.1407 73.9719 21.374C74.2425 21.598 74.5972 21.71 75.0359 21.71ZM73.1739 25.882C73.1739 26.2833 73.3512 26.582 73.7059 26.778C74.0605 26.9833 74.5039 27.086 75.0359 27.086C75.5492 27.086 75.9645 26.974 76.2819 26.75C76.5992 26.5353 76.7579 26.246 76.7579 25.882C76.7579 25.6113 76.6505 25.378 76.4359 25.182C76.2212 24.9953 75.8152 24.8787 75.2179 24.832C74.7699 24.804 74.3732 24.762 74.0279 24.706C73.7012 24.8833 73.4772 25.0747 73.3559 25.28C73.2345 25.4853 73.1739 25.686 73.1739 25.882ZM83.0161 25.168C82.3534 25.168 81.7561 25.0187 81.2241 24.72C80.7014 24.412 80.2861 23.9873 79.9781 23.446C79.6701 22.8953 79.5161 22.256 79.5161 21.528C79.5161 20.8 79.6701 20.1653 79.9781 19.624C80.2954 19.0733 80.7201 18.6487 81.2521 18.35C81.7841 18.042 82.3767 17.888 83.0301 17.888C83.6927 17.888 84.2854 18.042 84.8081 18.35C85.3401 18.6487 85.7601 19.0733 86.0681 19.624C86.3854 20.1653 86.5441 20.8 86.5441 21.528C86.5441 22.256 86.3854 22.8953 86.0681 23.446C85.7601 23.9873 85.3401 24.412 84.8081 24.72C84.2761 25.0187 83.6787 25.168 83.0161 25.168ZM83.0161 23.894C83.3707 23.894 83.6974 23.8053 83.9961 23.628C84.3041 23.4507 84.5514 23.1893 84.7381 22.844C84.9247 22.4893 85.0181 22.0507 85.0181 21.528C85.0181 21.0053 84.9247 20.5713 84.7381 20.226C84.5607 19.8713 84.3181 19.6053 84.0101 19.428C83.7114 19.2507 83.3847 19.162 83.0301 19.162C82.6754 19.162 82.3441 19.2507 82.0361 19.428C81.7374 19.6053 81.4947 19.8713 81.3081 20.226C81.1214 20.5713 81.0281 21.0053 81.0281 21.528C81.0281 22.0507 81.1214 22.4893 81.3081 22.844C81.4947 23.1893 81.7374 23.4507 82.0361 23.628C82.3347 23.8053 82.6614 23.894 83.0161 23.894ZM88.1489 25V18.056H89.4789L89.6049 19.372C89.8476 18.9147 90.1836 18.5553 90.6129 18.294C91.0516 18.0233 91.5789 17.888 92.1949 17.888V19.442H91.7889C91.3783 19.442 91.0096 19.512 90.6829 19.652C90.3656 19.7827 90.1089 20.0113 89.9129 20.338C89.7263 20.6553 89.6329 21.0987 89.6329 21.668V25H88.1489ZM94.3073 16.74C94.0273 16.74 93.794 16.656 93.6073 16.488C93.43 16.3107 93.3413 16.0913 93.3413 15.83C93.3413 15.5687 93.43 15.354 93.6073 15.186C93.794 15.0087 94.0273 14.92 94.3073 14.92C94.5873 14.92 94.816 15.0087 94.9933 15.186C95.18 15.354 95.2733 15.5687 95.2733 15.83C95.2733 16.0913 95.18 16.3107 94.9933 16.488C94.816 16.656 94.5873 16.74 94.3073 16.74ZM93.5653 25V18.056H95.0493V25H93.5653ZM100.256 25.168C99.575 25.168 98.9683 25.0187 98.4363 24.72C97.9136 24.412 97.503 23.9873 97.2043 23.446C96.9056 22.9047 96.7563 22.2747 96.7563 21.556C96.7563 20.828 96.901 20.1887 97.1903 19.638C97.489 19.0873 97.8996 18.658 98.4223 18.35C98.9543 18.042 99.5703 17.888 100.27 17.888C100.952 17.888 101.544 18.042 102.048 18.35C102.552 18.6487 102.944 19.05 103.224 19.554C103.504 20.058 103.644 20.6133 103.644 21.22C103.644 21.3133 103.64 21.416 103.63 21.528C103.63 21.6307 103.626 21.7473 103.616 21.878H98.2123C98.259 22.55 98.4783 23.0633 98.8703 23.418C99.2716 23.7633 99.7336 23.936 100.256 23.936C100.676 23.936 101.026 23.8427 101.306 23.656C101.596 23.46 101.81 23.1987 101.95 22.872H103.434C103.248 23.5253 102.874 24.0713 102.314 24.51C101.764 24.9487 101.078 25.168 100.256 25.168ZM100.256 19.106C99.7616 19.106 99.323 19.2553 98.9403 19.554C98.5576 19.8433 98.3243 20.282 98.2403 20.87H102.16C102.132 20.3287 101.941 19.8993 101.586 19.582C101.232 19.2647 100.788 19.106 100.256 19.106ZM107.956 25.168C107.079 25.168 106.355 24.9533 105.786 24.524C105.217 24.0947 104.89 23.5253 104.806 22.816H106.304C106.379 23.1333 106.556 23.4087 106.836 23.642C107.116 23.866 107.485 23.978 107.942 23.978C108.39 23.978 108.717 23.8847 108.922 23.698C109.127 23.5113 109.23 23.2967 109.23 23.054C109.23 22.6993 109.085 22.4613 108.796 22.34C108.516 22.2093 108.124 22.0927 107.62 21.99C107.228 21.906 106.836 21.794 106.444 21.654C106.061 21.514 105.739 21.318 105.478 21.066C105.226 20.8047 105.1 20.4547 105.1 20.016C105.1 19.4093 105.333 18.9053 105.8 18.504C106.267 18.0933 106.92 17.888 107.76 17.888C108.535 17.888 109.16 18.0747 109.636 18.448C110.121 18.8213 110.406 19.3487 110.49 20.03H109.062C109.015 19.7313 108.875 19.498 108.642 19.33C108.418 19.162 108.115 19.078 107.732 19.078C107.359 19.078 107.069 19.1573 106.864 19.316C106.659 19.4653 106.556 19.6613 106.556 19.904C106.556 20.1467 106.696 20.338 106.976 20.478C107.265 20.618 107.643 20.744 108.11 20.856C108.577 20.9587 109.006 21.08 109.398 21.22C109.799 21.3507 110.121 21.5467 110.364 21.808C110.607 22.0693 110.728 22.452 110.728 22.956C110.737 23.5907 110.49 24.118 109.986 24.538C109.491 24.958 108.815 25.168 107.956 25.168Z" fill="white"/>
<rect x="144" y="2" width="61" height="38" rx="19" fill="#DCDCDC" fill-opacity="0.2"/>
<path d="M164.364 25L167.976 15.2H169.6L173.184 25H171.616L170.776 22.606H166.772L165.932 25H164.364ZM167.192 21.43H170.356L168.774 16.964L167.192 21.43ZM174.495 25V18.056H175.825L175.951 19.372C176.193 18.9147 176.529 18.5553 176.959 18.294C177.397 18.0233 177.925 17.888 178.541 17.888V19.442H178.135C177.724 19.442 177.355 19.512 177.029 19.652C176.711 19.7827 176.455 20.0113 176.259 20.338C176.072 20.6553 175.979 21.0987 175.979 21.668V25H174.495ZM182.725 25C182.044 25 181.502 24.8367 181.101 24.51C180.7 24.174 180.499 23.5813 180.499 22.732V19.302H179.309V18.056H180.499L180.681 16.292H181.983V18.056H183.943V19.302H181.983V22.732C181.983 23.1147 182.062 23.3807 182.221 23.53C182.389 23.67 182.674 23.74 183.075 23.74H183.873V25H182.725Z" fill="black"/>
<rect x="217" y="2" width="113" height="38" rx="19" fill="#DCDCDC" fill-opacity="0.2"/>
<path d="M242.362 25.168C241.391 25.168 240.551 24.958 239.842 24.538C239.142 24.1087 238.601 23.516 238.218 22.76C237.835 21.9947 237.644 21.1127 237.644 20.114C237.644 19.106 237.835 18.224 238.218 17.468C238.601 16.7027 239.142 16.1053 239.842 15.676C240.551 15.2467 241.391 15.032 242.362 15.032C243.51 15.032 244.448 15.312 245.176 15.872C245.904 16.432 246.366 17.216 246.562 18.224H244.91C244.779 17.6547 244.499 17.202 244.07 16.866C243.641 16.53 243.067 16.362 242.348 16.362C241.368 16.362 240.593 16.698 240.024 17.37C239.455 18.0327 239.17 18.9473 239.17 20.114C239.17 21.2713 239.455 22.1813 240.024 22.844C240.593 23.5067 241.368 23.838 242.348 23.838C243.067 23.838 243.641 23.6793 244.07 23.362C244.499 23.0447 244.779 22.6107 244.91 22.06H246.562C246.366 23.0307 245.904 23.7913 245.176 24.342C244.448 24.8927 243.51 25.168 242.362 25.168ZM251.385 25.168C250.704 25.168 250.097 25.0187 249.565 24.72C249.043 24.412 248.632 23.9873 248.333 23.446C248.035 22.9047 247.885 22.2747 247.885 21.556C247.885 20.828 248.03 20.1887 248.319 19.638C248.618 19.0873 249.029 18.658 249.551 18.35C250.083 18.042 250.699 17.888 251.399 17.888C252.081 17.888 252.673 18.042 253.177 18.35C253.681 18.6487 254.073 19.05 254.353 19.554C254.633 20.058 254.773 20.6133 254.773 21.22C254.773 21.3133 254.769 21.416 254.759 21.528C254.759 21.6307 254.755 21.7473 254.745 21.878H249.341C249.388 22.55 249.607 23.0633 249.999 23.418C250.401 23.7633 250.863 23.936 251.385 23.936C251.805 23.936 252.155 23.8427 252.435 23.656C252.725 23.46 252.939 23.1987 253.079 22.872H254.563C254.377 23.5253 254.003 24.0713 253.443 24.51C252.893 24.9487 252.207 25.168 251.385 25.168ZM251.385 19.106C250.891 19.106 250.452 19.2553 250.069 19.554C249.687 19.8433 249.453 20.282 249.369 20.87H253.289C253.261 20.3287 253.07 19.8993 252.715 19.582C252.361 19.2647 251.917 19.106 251.385 19.106ZM256.313 25V14.92H257.797V25H256.313ZM262.924 25.168C262.243 25.168 261.636 25.0187 261.104 24.72C260.582 24.412 260.171 23.9873 259.872 23.446C259.574 22.9047 259.424 22.2747 259.424 21.556C259.424 20.828 259.569 20.1887 259.858 19.638C260.157 19.0873 260.568 18.658 261.09 18.35C261.622 18.042 262.238 17.888 262.938 17.888C263.62 17.888 264.212 18.042 264.716 18.35C265.22 18.6487 265.612 19.05 265.892 19.554C266.172 20.058 266.312 20.6133 266.312 21.22C266.312 21.3133 266.308 21.416 266.298 21.528C266.298 21.6307 266.294 21.7473 266.284 21.878H260.88C260.927 22.55 261.146 23.0633 261.538 23.418C261.94 23.7633 262.402 23.936 262.924 23.936C263.344 23.936 263.694 23.8427 263.974 23.656C264.264 23.46 264.478 23.1987 264.618 22.872H266.102C265.916 23.5253 265.542 24.0713 264.982 24.51C264.432 24.9487 263.746 25.168 262.924 25.168ZM262.924 19.106C262.43 19.106 261.991 19.2553 261.608 19.554C261.226 19.8433 260.992 20.282 260.908 20.87H264.828C264.8 20.3287 264.609 19.8993 264.254 19.582C263.9 19.2647 263.456 19.106 262.924 19.106ZM271.758 25.168C271.217 25.168 270.736 25.0607 270.316 24.846C269.905 24.6313 269.579 24.328 269.336 23.936L269.182 25H267.852V14.92H269.336V19.134C269.56 18.8073 269.868 18.518 270.26 18.266C270.652 18.014 271.156 17.888 271.772 17.888C272.444 17.888 273.037 18.0467 273.55 18.364C274.063 18.6813 274.465 19.1153 274.754 19.666C275.053 20.2167 275.202 20.842 275.202 21.542C275.202 22.242 275.053 22.8673 274.754 23.418C274.465 23.9593 274.063 24.3887 273.55 24.706C273.037 25.014 272.439 25.168 271.758 25.168ZM271.506 23.88C272.141 23.88 272.663 23.6653 273.074 23.236C273.485 22.7973 273.69 22.228 273.69 21.528C273.69 21.0707 273.597 20.6647 273.41 20.31C273.223 19.9553 272.967 19.68 272.64 19.484C272.313 19.2787 271.935 19.176 271.506 19.176C270.871 19.176 270.349 19.3953 269.938 19.834C269.537 20.2727 269.336 20.8373 269.336 21.528C269.336 22.228 269.537 22.7973 269.938 23.236C270.349 23.6653 270.871 23.88 271.506 23.88ZM276.807 25V18.056H278.137L278.263 19.372C278.506 18.9147 278.842 18.5553 279.271 18.294C279.71 18.0233 280.237 17.888 280.853 17.888V19.442H280.447C280.036 19.442 279.668 19.512 279.341 19.652C279.024 19.7827 278.767 20.0113 278.571 20.338C278.384 20.6553 278.291 21.0987 278.291 21.668V25H276.807ZM282.966 16.74C282.686 16.74 282.452 16.656 282.266 16.488C282.088 16.3107 282 16.0913 282 15.83C282 15.5687 282.088 15.354 282.266 15.186C282.452 15.0087 282.686 14.92 282.966 14.92C283.246 14.92 283.474 15.0087 283.652 15.186C283.838 15.354 283.932 15.5687 283.932 15.83C283.932 16.0913 283.838 16.3107 283.652 16.488C283.474 16.656 283.246 16.74 282.966 16.74ZM282.224 25V18.056H283.708V25H282.224ZM288.579 25C287.897 25 287.356 24.8367 286.955 24.51C286.553 24.174 286.353 23.5813 286.353 22.732V19.302H285.163V18.056H286.353L286.535 16.292H287.837V18.056H289.797V19.302H287.837V22.732C287.837 23.1147 287.916 23.3807 288.075 23.53C288.243 23.67 288.527 23.74 288.929 23.74H289.727V25H288.579ZM292.167 16.74C291.887 16.74 291.653 16.656 291.467 16.488C291.289 16.3107 291.201 16.0913 291.201 15.83C291.201 15.5687 291.289 15.354 291.467 15.186C291.653 15.0087 291.887 14.92 292.167 14.92C292.447 14.92 292.675 15.0087 292.853 15.186C293.039 15.354 293.133 15.5687 293.133 15.83C293.133 16.0913 293.039 16.3107 292.853 16.488C292.675 16.656 292.447 16.74 292.167 16.74ZM291.425 25V18.056H292.909V25H291.425ZM298.116 25.168C297.434 25.168 296.828 25.0187 296.296 24.72C295.773 24.412 295.362 23.9873 295.064 23.446C294.765 22.9047 294.616 22.2747 294.616 21.556C294.616 20.828 294.76 20.1887 295.05 19.638C295.348 19.0873 295.759 18.658 296.282 18.35C296.814 18.042 297.43 17.888 298.13 17.888C298.811 17.888 299.404 18.042 299.908 18.35C300.412 18.6487 300.804 19.05 301.084 19.554C301.364 20.058 301.504 20.6133 301.504 21.22C301.504 21.3133 301.499 21.416 301.49 21.528C301.49 21.6307 301.485 21.7473 301.476 21.878H296.072C296.118 22.55 296.338 23.0633 296.73 23.418C297.131 23.7633 297.593 23.936 298.116 23.936C298.536 23.936 298.886 23.8427 299.166 23.656C299.455 23.46 299.67 23.1987 299.81 22.872H301.294C301.107 23.5253 300.734 24.0713 300.174 24.51C299.623 24.9487 298.937 25.168 298.116 25.168ZM298.116 19.106C297.621 19.106 297.182 19.2553 296.8 19.554C296.417 19.8433 296.184 20.282 296.1 20.87H300.02C299.992 20.3287 299.8 19.8993 299.446 19.582C299.091 19.2647 298.648 19.106 298.116 19.106ZM305.815 25.168C304.938 25.168 304.215 24.9533 303.645 24.524C303.076 24.0947 302.749 23.5253 302.665 22.816H304.163C304.238 23.1333 304.415 23.4087 304.695 23.642C304.975 23.866 305.344 23.978 305.801 23.978C306.249 23.978 306.576 23.8847 306.781 23.698C306.987 23.5113 307.089 23.2967 307.089 23.054C307.089 22.6993 306.945 22.4613 306.655 22.34C306.375 22.2093 305.983 22.0927 305.479 21.99C305.087 21.906 304.695 21.794 304.303 21.654C303.921 21.514 303.599 21.318 303.337 21.066C303.085 20.8047 302.959 20.4547 302.959 20.016C302.959 19.4093 303.193 18.9053 303.659 18.504C304.126 18.0933 304.779 17.888 305.619 17.888C306.394 17.888 307.019 18.0747 307.495 18.448C307.981 18.8213 308.265 19.3487 308.349 20.03H306.921C306.875 19.7313 306.735 19.498 306.501 19.33C306.277 19.162 305.974 19.078 305.591 19.078C305.218 19.078 304.929 19.1573 304.723 19.316C304.518 19.4653 304.415 19.6613 304.415 19.904C304.415 20.1467 304.555 20.338 304.835 20.478C305.125 20.618 305.503 20.744 305.969 20.856C306.436 20.9587 306.865 21.08 307.257 21.22C307.659 21.3507 307.981 21.5467 308.223 21.808C308.466 22.0693 308.587 22.452 308.587 22.956C308.597 23.5907 308.349 24.118 307.845 24.538C307.351 24.958 306.674 25.168 305.815 25.168Z" fill="black"/>
<rect x="342" y="2" width="91" height="38" rx="19" fill="#DCDCDC" fill-opacity="0.2"/>
<path d="M367.25 25.168C366.326 25.168 365.519 24.958 364.828 24.538C364.137 24.118 363.601 23.53 363.218 22.774C362.835 22.018 362.644 21.136 362.644 20.128C362.644 19.1293 362.84 18.2473 363.232 17.482C363.624 16.7167 364.179 16.1193 364.898 15.69C365.626 15.2513 366.485 15.032 367.474 15.032C368.594 15.032 369.527 15.3027 370.274 15.844C371.021 16.3853 371.506 17.132 371.73 18.084H370.05C369.901 17.5613 369.607 17.1507 369.168 16.852C368.729 16.5533 368.165 16.404 367.474 16.404C366.447 16.404 365.64 16.7353 365.052 17.398C364.464 18.0607 364.17 18.9753 364.17 20.142C364.17 21.3087 364.459 22.2187 365.038 22.872C365.617 23.5253 366.387 23.852 367.348 23.852C368.319 23.852 369.047 23.5767 369.532 23.026C370.027 22.4753 370.316 21.7427 370.4 20.828H367.74V19.68H371.898V25H370.54L370.414 23.558C370.087 24.0713 369.677 24.468 369.182 24.748C368.687 25.028 368.043 25.168 367.25 25.168ZM375.995 25.168C375.407 25.168 374.922 25.07 374.539 24.874C374.156 24.678 373.872 24.4213 373.685 24.104C373.498 23.7773 373.405 23.4227 373.405 23.04C373.405 22.368 373.666 21.836 374.189 21.444C374.712 21.052 375.458 20.856 376.429 20.856H378.249V20.73C378.249 20.1887 378.1 19.7827 377.801 19.512C377.512 19.2413 377.134 19.106 376.667 19.106C376.256 19.106 375.897 19.2087 375.589 19.414C375.29 19.61 375.108 19.904 375.043 20.296H373.559C373.606 19.792 373.774 19.3627 374.063 19.008C374.362 18.644 374.735 18.3687 375.183 18.182C375.64 17.986 376.14 17.888 376.681 17.888C377.652 17.888 378.403 18.1447 378.935 18.658C379.467 19.162 379.733 19.8527 379.733 20.73V25H378.445L378.319 23.81C378.123 24.1927 377.838 24.5147 377.465 24.776C377.092 25.0373 376.602 25.168 375.995 25.168ZM376.289 23.964C376.69 23.964 377.026 23.8707 377.297 23.684C377.577 23.488 377.792 23.2313 377.941 22.914C378.1 22.5967 378.198 22.2467 378.235 21.864H376.583C375.995 21.864 375.575 21.9667 375.323 22.172C375.08 22.3773 374.959 22.634 374.959 22.942C374.959 23.2593 375.076 23.5113 375.309 23.698C375.552 23.8753 375.878 23.964 376.289 23.964ZM381.463 25V18.056H382.779L382.905 19.036C383.129 18.6813 383.423 18.4013 383.787 18.196C384.161 17.9907 384.59 17.888 385.075 17.888C386.177 17.888 386.942 18.322 387.371 19.19C387.623 18.7887 387.959 18.4713 388.379 18.238C388.809 18.0047 389.271 17.888 389.765 17.888C390.633 17.888 391.315 18.1493 391.809 18.672C392.304 19.1947 392.551 19.974 392.551 21.01V25H391.067V21.164C391.067 19.82 390.554 19.148 389.527 19.148C389.005 19.148 388.575 19.344 388.239 19.736C387.913 20.128 387.749 20.688 387.749 21.416V25H386.265V21.164C386.265 19.82 385.747 19.148 384.711 19.148C384.198 19.148 383.773 19.344 383.437 19.736C383.111 20.128 382.947 20.688 382.947 21.416V25H381.463ZM395.128 16.74C394.848 16.74 394.614 16.656 394.428 16.488C394.25 16.3107 394.162 16.0913 394.162 15.83C394.162 15.5687 394.25 15.354 394.428 15.186C394.614 15.0087 394.848 14.92 395.128 14.92C395.408 14.92 395.636 15.0087 395.814 15.186C396 15.354 396.094 15.5687 396.094 15.83C396.094 16.0913 396 16.3107 395.814 16.488C395.636 16.656 395.408 16.74 395.128 16.74ZM394.386 25V18.056H395.87V25H394.386ZM397.829 25V18.056H399.145L399.257 19.274C399.471 18.8447 399.784 18.5087 400.195 18.266C400.615 18.014 401.095 17.888 401.637 17.888C402.477 17.888 403.135 18.1493 403.611 18.672C404.096 19.1947 404.339 19.974 404.339 21.01V25H402.869V21.164C402.869 19.82 402.318 19.148 401.217 19.148C400.666 19.148 400.209 19.344 399.845 19.736C399.49 20.128 399.313 20.688 399.313 21.416V25H397.829ZM408.928 22.872C408.564 22.872 408.228 22.83 407.92 22.746L407.318 23.334C407.421 23.3993 407.547 23.4553 407.696 23.502C407.846 23.5487 408.056 23.5907 408.326 23.628C408.597 23.6653 408.966 23.7027 409.432 23.74C410.356 23.824 411.024 24.048 411.434 24.412C411.845 24.7667 412.05 25.2427 412.05 25.84C412.05 26.2507 411.938 26.638 411.714 27.002C411.5 27.3753 411.159 27.674 410.692 27.898C410.235 28.1313 409.647 28.248 408.928 28.248C407.958 28.248 407.169 28.0613 406.562 27.688C405.965 27.324 405.666 26.7687 405.666 26.022C405.666 25.7327 405.741 25.4433 405.89 25.154C406.049 24.874 406.296 24.608 406.632 24.356C406.436 24.272 406.264 24.1833 406.114 24.09C405.974 23.9873 405.848 23.8847 405.736 23.782V23.446L406.94 22.214C406.399 21.7473 406.128 21.136 406.128 20.38C406.128 19.9227 406.236 19.5073 406.45 19.134C406.674 18.7513 406.996 18.448 407.416 18.224C407.836 18 408.34 17.888 408.928 17.888C409.32 17.888 409.684 17.944 410.02 18.056H412.61V19.036L411.378 19.106C411.602 19.4887 411.714 19.9133 411.714 20.38C411.714 20.8467 411.602 21.2667 411.378 21.64C411.164 22.0133 410.846 22.312 410.426 22.536C410.016 22.76 409.516 22.872 408.928 22.872ZM408.928 21.71C409.358 21.71 409.703 21.598 409.964 21.374C410.235 21.1407 410.37 20.814 410.37 20.394C410.37 19.9647 410.235 19.638 409.964 19.414C409.703 19.19 409.358 19.078 408.928 19.078C408.49 19.078 408.135 19.19 407.864 19.414C407.603 19.638 407.472 19.9647 407.472 20.394C407.472 20.814 407.603 21.1407 407.864 21.374C408.135 21.598 408.49 21.71 408.928 21.71ZM407.066 25.882C407.066 26.2833 407.244 26.582 407.598 26.778C407.953 26.9833 408.396 27.086 408.928 27.086C409.442 27.086 409.857 26.974 410.174 26.75C410.492 26.5353 410.65 26.246 410.65 25.882C410.65 25.6113 410.543 25.378 410.328 25.182C410.114 24.9953 409.708 24.8787 409.11 24.832C408.662 24.804 408.266 24.762 407.92 24.706C407.594 24.8833 407.37 25.0747 407.248 25.28C407.127 25.4853 407.066 25.686 407.066 25.882Z" fill="black"/>
<rect x="445" y="2" width="77" height="38" rx="19" fill="#DCDCDC" fill-opacity="0.2"/>
<path d="M469.228 25.168C468.509 25.168 467.879 25.042 467.338 24.79C466.797 24.538 466.372 24.1787 466.064 23.712C465.765 23.2453 465.611 22.69 465.602 22.046H467.17C467.179 22.5687 467.361 23.012 467.716 23.376C468.071 23.74 468.57 23.922 469.214 23.922C469.783 23.922 470.227 23.7867 470.544 23.516C470.871 23.236 471.034 22.8813 471.034 22.452C471.034 22.1067 470.955 21.8267 470.796 21.612C470.647 21.3973 470.437 21.22 470.166 21.08C469.905 20.94 469.601 20.814 469.256 20.702C468.911 20.59 468.547 20.4687 468.164 20.338C467.408 20.086 466.839 19.7593 466.456 19.358C466.083 18.9567 465.896 18.4293 465.896 17.776C465.887 17.2253 466.013 16.7447 466.274 16.334C466.545 15.9233 466.918 15.606 467.394 15.382C467.879 15.1487 468.444 15.032 469.088 15.032C469.723 15.032 470.278 15.1487 470.754 15.382C471.239 15.6153 471.617 15.942 471.888 16.362C472.159 16.7727 472.299 17.2533 472.308 17.804H470.74C470.74 17.552 470.675 17.314 470.544 17.09C470.413 16.8567 470.222 16.6653 469.97 16.516C469.718 16.3667 469.41 16.292 469.046 16.292C468.579 16.2827 468.192 16.3993 467.884 16.642C467.585 16.8847 467.436 17.2207 467.436 17.65C467.436 18.0327 467.548 18.3267 467.772 18.532C467.996 18.7373 468.304 18.91 468.696 19.05C469.088 19.1807 469.536 19.3347 470.04 19.512C470.525 19.6707 470.959 19.862 471.342 20.086C471.725 20.31 472.028 20.604 472.252 20.968C472.485 21.332 472.602 21.794 472.602 22.354C472.602 22.8487 472.476 23.3107 472.224 23.74C471.972 24.16 471.594 24.5053 471.09 24.776C470.586 25.0373 469.965 25.168 469.228 25.168ZM474.168 28.08V18.056H475.498L475.652 19.134C475.876 18.8073 476.184 18.518 476.576 18.266C476.968 18.014 477.472 17.888 478.088 17.888C478.76 17.888 479.353 18.0467 479.866 18.364C480.38 18.6813 480.781 19.1153 481.07 19.666C481.369 20.2167 481.518 20.842 481.518 21.542C481.518 22.242 481.369 22.8673 481.07 23.418C480.781 23.9593 480.38 24.3887 479.866 24.706C479.353 25.014 478.756 25.168 478.074 25.168C477.533 25.168 477.052 25.0607 476.632 24.846C476.222 24.6313 475.895 24.328 475.652 23.936V28.08H474.168ZM477.822 23.88C478.457 23.88 478.98 23.6653 479.39 23.236C479.801 22.7973 480.006 22.228 480.006 21.528C480.006 21.0707 479.913 20.6647 479.726 20.31C479.54 19.9553 479.283 19.68 478.956 19.484C478.63 19.2787 478.252 19.176 477.822 19.176C477.188 19.176 476.665 19.3953 476.254 19.834C475.853 20.2727 475.652 20.8373 475.652 21.528C475.652 22.228 475.853 22.7973 476.254 23.236C476.665 23.6653 477.188 23.88 477.822 23.88ZM486.372 25.168C485.709 25.168 485.112 25.0187 484.58 24.72C484.057 24.412 483.642 23.9873 483.334 23.446C483.026 22.8953 482.872 22.256 482.872 21.528C482.872 20.8 483.026 20.1653 483.334 19.624C483.651 19.0733 484.076 18.6487 484.608 18.35C485.14 18.042 485.732 17.888 486.386 17.888C487.048 17.888 487.641 18.042 488.164 18.35C488.696 18.6487 489.116 19.0733 489.424 19.624C489.741 20.1653 489.9 20.8 489.9 21.528C489.9 22.256 489.741 22.8953 489.424 23.446C489.116 23.9873 488.696 24.412 488.164 24.72C487.632 25.0187 487.034 25.168 486.372 25.168ZM486.372 23.894C486.726 23.894 487.053 23.8053 487.352 23.628C487.66 23.4507 487.907 23.1893 488.094 22.844C488.28 22.4893 488.374 22.0507 488.374 21.528C488.374 21.0053 488.28 20.5713 488.094 20.226C487.916 19.8713 487.674 19.6053 487.366 19.428C487.067 19.2507 486.74 19.162 486.386 19.162C486.031 19.162 485.7 19.2507 485.392 19.428C485.093 19.6053 484.85 19.8713 484.664 20.226C484.477 20.5713 484.384 21.0053 484.384 21.528C484.384 22.0507 484.477 22.4893 484.664 22.844C484.85 23.1893 485.093 23.4507 485.392 23.628C485.69 23.8053 486.017 23.894 486.372 23.894ZM491.504 25V18.056H492.834L492.96 19.372C493.203 18.9147 493.539 18.5553 493.968 18.294C494.407 18.0233 494.934 17.888 495.55 17.888V19.442H495.144C494.734 19.442 494.365 19.512 494.038 19.652C493.721 19.7827 493.464 20.0113 493.268 20.338C493.082 20.6553 492.988 21.0987 492.988 21.668V25H491.504ZM499.735 25C499.053 25 498.512 24.8367 498.111 24.51C497.709 24.174 497.509 23.5813 497.509 22.732V19.302H496.319V18.056H497.509L497.691 16.292H498.993V18.056H500.953V19.302H498.993V22.732C498.993 23.1147 499.072 23.3807 499.231 23.53C499.399 23.67 499.683 23.74 500.085 23.74H500.883V25H499.735Z" fill="black"/>
<rect x="534" y="2" width="80" height="38" rx="19" fill="#DCDCDC" fill-opacity="0.2"/>
<path d="M554.994 25V15.2H556.744L560.062 21.724L563.366 15.2H565.116V25H563.632V17.762L560.636 23.6H559.488L556.478 17.776V25H554.994ZM569.613 25.168C568.773 25.168 568.111 24.9067 567.625 24.384C567.149 23.8613 566.911 23.082 566.911 22.046V18.056H568.395V21.892C568.395 23.236 568.946 23.908 570.047 23.908C570.598 23.908 571.051 23.712 571.405 23.32C571.76 22.928 571.937 22.368 571.937 21.64V18.056H573.421V25H572.105L571.993 23.782C571.779 24.2113 571.461 24.552 571.041 24.804C570.631 25.0467 570.155 25.168 569.613 25.168ZM578.081 25.168C577.204 25.168 576.48 24.9533 575.911 24.524C575.342 24.0947 575.015 23.5253 574.931 22.816H576.429C576.504 23.1333 576.681 23.4087 576.961 23.642C577.241 23.866 577.61 23.978 578.067 23.978C578.515 23.978 578.842 23.8847 579.047 23.698C579.252 23.5113 579.355 23.2967 579.355 23.054C579.355 22.6993 579.21 22.4613 578.921 22.34C578.641 22.2093 578.249 22.0927 577.745 21.99C577.353 21.906 576.961 21.794 576.569 21.654C576.186 21.514 575.864 21.318 575.603 21.066C575.351 20.8047 575.225 20.4547 575.225 20.016C575.225 19.4093 575.458 18.9053 575.925 18.504C576.392 18.0933 577.045 17.888 577.885 17.888C578.66 17.888 579.285 18.0747 579.761 18.448C580.246 18.8213 580.531 19.3487 580.615 20.03H579.187C579.14 19.7313 579 19.498 578.767 19.33C578.543 19.162 578.24 19.078 577.857 19.078C577.484 19.078 577.194 19.1573 576.989 19.316C576.784 19.4653 576.681 19.6613 576.681 19.904C576.681 20.1467 576.821 20.338 577.101 20.478C577.39 20.618 577.768 20.744 578.235 20.856C578.702 20.9587 579.131 21.08 579.523 21.22C579.924 21.3507 580.246 21.5467 580.489 21.808C580.732 22.0693 580.853 22.452 580.853 22.956C580.862 23.5907 580.615 24.118 580.111 24.538C579.616 24.958 578.94 25.168 578.081 25.168ZM583.313 16.74C583.033 16.74 582.8 16.656 582.613 16.488C582.436 16.3107 582.347 16.0913 582.347 15.83C582.347 15.5687 582.436 15.354 582.613 15.186C582.8 15.0087 583.033 14.92 583.313 14.92C583.593 14.92 583.822 15.0087 583.999 15.186C584.186 15.354 584.279 15.5687 584.279 15.83C584.279 16.0913 584.186 16.3107 583.999 16.488C583.822 16.656 583.593 16.74 583.313 16.74ZM582.571 25V18.056H584.055V25H582.571ZM589.304 25.168C588.623 25.168 588.012 25.014 587.47 24.706C586.938 24.398 586.518 23.9733 586.21 23.432C585.912 22.8813 585.762 22.2467 585.762 21.528C585.762 20.8093 585.912 20.1793 586.21 19.638C586.518 19.0873 586.938 18.658 587.47 18.35C588.012 18.042 588.623 17.888 589.304 17.888C590.163 17.888 590.882 18.112 591.46 18.56C592.048 19.008 592.426 19.6147 592.594 20.38H591.04C590.947 19.9973 590.742 19.6987 590.424 19.484C590.107 19.2693 589.734 19.162 589.304 19.162C588.94 19.162 588.604 19.2553 588.296 19.442C587.988 19.6193 587.741 19.8853 587.554 20.24C587.368 20.5853 587.274 21.0147 587.274 21.528C587.274 22.0413 587.368 22.4753 587.554 22.83C587.741 23.1753 587.988 23.4413 588.296 23.628C588.604 23.8147 588.94 23.908 589.304 23.908C589.734 23.908 590.107 23.8007 590.424 23.586C590.742 23.3713 590.947 23.068 591.04 22.676H592.594C592.436 23.4227 592.062 24.0247 591.474 24.482C590.886 24.9393 590.163 25.168 589.304 25.168Z" fill="black"/>
<rect x="626" y="2" width="87" height="38" rx="19" fill="#DCDCDC" fill-opacity="0.2"/>
<path d="M651.362 25.168C650.391 25.168 649.551 24.958 648.842 24.538C648.142 24.1087 647.601 23.516 647.218 22.76C646.835 21.9947 646.644 21.1127 646.644 20.114C646.644 19.106 646.835 18.224 647.218 17.468C647.601 16.7027 648.142 16.1053 648.842 15.676C649.551 15.2467 650.391 15.032 651.362 15.032C652.51 15.032 653.448 15.312 654.176 15.872C654.904 16.432 655.366 17.216 655.562 18.224H653.91C653.779 17.6547 653.499 17.202 653.07 16.866C652.641 16.53 652.067 16.362 651.348 16.362C650.368 16.362 649.593 16.698 649.024 17.37C648.455 18.0327 648.17 18.9473 648.17 20.114C648.17 21.2713 648.455 22.1813 649.024 22.844C649.593 23.5067 650.368 23.838 651.348 23.838C652.067 23.838 652.641 23.6793 653.07 23.362C653.499 23.0447 653.779 22.6107 653.91 22.06H655.562C655.366 23.0307 654.904 23.7913 654.176 24.342C653.448 24.8927 652.51 25.168 651.362 25.168ZM657.137 25V18.056H658.467L658.593 19.372C658.836 18.9147 659.172 18.5553 659.601 18.294C660.04 18.0233 660.567 17.888 661.183 17.888V19.442H660.777C660.367 19.442 659.998 19.512 659.671 19.652C659.354 19.7827 659.097 20.0113 658.901 20.338C658.715 20.6553 658.621 21.0987 658.621 21.668V25H657.137ZM663.268 28.08L664.934 24.426H664.528L661.784 18.056H663.394L665.522 23.194L667.748 18.056H669.316L664.836 28.08H663.268ZM670.536 28.08V18.056H671.866L672.02 19.134C672.244 18.8073 672.552 18.518 672.944 18.266C673.336 18.014 673.84 17.888 674.456 17.888C675.128 17.888 675.72 18.0467 676.234 18.364C676.747 18.6813 677.148 19.1153 677.438 19.666C677.736 20.2167 677.886 20.842 677.886 21.542C677.886 22.242 677.736 22.8673 677.438 23.418C677.148 23.9593 676.747 24.3887 676.234 24.706C675.72 25.014 675.123 25.168 674.442 25.168C673.9 25.168 673.42 25.0607 673 24.846C672.589 24.6313 672.262 24.328 672.02 23.936V28.08H670.536ZM674.19 23.88C674.824 23.88 675.347 23.6653 675.758 23.236C676.168 22.7973 676.374 22.228 676.374 21.528C676.374 21.0707 676.28 20.6647 676.094 20.31C675.907 19.9553 675.65 19.68 675.324 19.484C674.997 19.2787 674.619 19.176 674.19 19.176C673.555 19.176 673.032 19.3953 672.622 19.834C672.22 20.2727 672.02 20.8373 672.02 21.528C672.02 22.228 672.22 22.7973 672.622 23.236C673.032 23.6653 673.555 23.88 674.19 23.88ZM682.129 25C681.448 25 680.907 24.8367 680.505 24.51C680.104 24.174 679.903 23.5813 679.903 22.732V19.302H678.713V18.056H679.903L680.085 16.292H681.387V18.056H683.347V19.302H681.387V22.732C681.387 23.1147 681.467 23.3807 681.625 23.53C681.793 23.67 682.078 23.74 682.479 23.74H683.277V25H682.129ZM687.948 25.168C687.285 25.168 686.688 25.0187 686.156 24.72C685.633 24.412 685.218 23.9873 684.91 23.446C684.602 22.8953 684.448 22.256 684.448 21.528C684.448 20.8 684.602 20.1653 684.91 19.624C685.227 19.0733 685.652 18.6487 686.184 18.35C686.716 18.042 687.308 17.888 687.962 17.888C688.624 17.888 689.217 18.042 689.74 18.35C690.272 18.6487 690.692 19.0733 691 19.624C691.317 20.1653 691.476 20.8 691.476 21.528C691.476 22.256 691.317 22.8953 691 23.446C690.692 23.9873 690.272 24.412 689.74 24.72C689.208 25.0187 688.61 25.168 687.948 25.168ZM687.948 23.894C688.302 23.894 688.629 23.8053 688.928 23.628C689.236 23.4507 689.483 23.1893 689.67 22.844C689.856 22.4893 689.95 22.0507 689.95 21.528C689.95 21.0053 689.856 20.5713 689.67 20.226C689.492 19.8713 689.25 19.6053 688.942 19.428C688.643 19.2507 688.316 19.162 687.962 19.162C687.607 19.162 687.276 19.2507 686.968 19.428C686.669 19.6053 686.426 19.8713 686.24 20.226C686.053 20.5713 685.96 21.0053 685.96 21.528C685.96 22.0507 686.053 22.4893 686.24 22.844C686.426 23.1893 686.669 23.4507 686.968 23.628C687.266 23.8053 687.593 23.894 687.948 23.894Z" fill="black"/>
<rect x="1058" width="135" height="44" rx="22" fill="#DCDCDC" fill-opacity="0.2"/>
<g clip-path="url(#clip0_406_994)">
<path d="M1087.33 30H1092.67V27.3333H1087.33V30ZM1078 14V16.6667H1102V14H1078ZM1082 23.3333H1098V20.6667H1082V23.3333Z" fill="#371C87"/>
</g>
<path d="M1112.36 26L1115.98 16.2H1117.6L1121.18 26H1119.62L1118.78 23.606H1114.77L1113.93 26H1112.36ZM1115.19 22.43H1118.36L1116.77 17.964L1115.19 22.43ZM1122.49 26V15.92H1123.98V26H1122.49ZM1125.86 26V15.92H1127.34V26H1125.86ZM1132.8 26V16.2H1138.95V17.404H1134.29V20.498H1138.15V21.688H1134.29V26H1132.8ZM1141.19 17.74C1140.91 17.74 1140.68 17.656 1140.49 17.488C1140.31 17.3107 1140.22 17.0913 1140.22 16.83C1140.22 16.5687 1140.31 16.354 1140.49 16.186C1140.68 16.0087 1140.91 15.92 1141.19 15.92C1141.47 15.92 1141.7 16.0087 1141.88 16.186C1142.06 16.354 1142.16 16.5687 1142.16 16.83C1142.16 17.0913 1142.06 17.3107 1141.88 17.488C1141.7 17.656 1141.47 17.74 1141.19 17.74ZM1140.45 26V19.056H1141.93V26H1140.45ZM1143.89 26V15.92H1145.38V26H1143.89ZM1150.17 26C1149.49 26 1148.94 25.8367 1148.54 25.51C1148.14 25.174 1147.94 24.5813 1147.94 23.732V20.302H1146.75V19.056H1147.94L1148.12 17.292H1149.42V19.056H1151.38V20.302H1149.42V23.732C1149.42 24.1147 1149.5 24.3807 1149.66 24.53C1149.83 24.67 1150.12 24.74 1150.52 24.74H1151.31V26H1150.17ZM1155.98 26.168C1155.3 26.168 1154.7 26.0187 1154.16 25.72C1153.64 25.412 1153.23 24.9873 1152.93 24.446C1152.63 23.9047 1152.48 23.2747 1152.48 22.556C1152.48 21.828 1152.63 21.1887 1152.92 20.638C1153.22 20.0873 1153.63 19.658 1154.15 19.35C1154.68 19.042 1155.3 18.888 1156 18.888C1156.68 18.888 1157.27 19.042 1157.78 19.35C1158.28 19.6487 1158.67 20.05 1158.95 20.554C1159.23 21.058 1159.37 21.6133 1159.37 22.22C1159.37 22.3133 1159.37 22.416 1159.36 22.528C1159.36 22.6307 1159.35 22.7473 1159.34 22.878H1153.94C1153.99 23.55 1154.21 24.0633 1154.6 24.418C1155 24.7633 1155.46 24.936 1155.98 24.936C1156.4 24.936 1156.75 24.8427 1157.03 24.656C1157.32 24.46 1157.54 24.1987 1157.68 23.872H1159.16C1158.98 24.5253 1158.6 25.0713 1158.04 25.51C1157.49 25.9487 1156.81 26.168 1155.98 26.168ZM1155.98 20.106C1155.49 20.106 1155.05 20.2553 1154.67 20.554C1154.29 20.8433 1154.05 21.282 1153.97 21.87H1157.89C1157.86 21.3287 1157.67 20.8993 1157.31 20.582C1156.96 20.2647 1156.52 20.106 1155.98 20.106ZM1160.91 26V19.056H1162.24L1162.37 20.372C1162.61 19.9147 1162.95 19.5553 1163.38 19.294C1163.82 19.0233 1164.34 18.888 1164.96 18.888V20.442H1164.55C1164.14 20.442 1163.77 20.512 1163.45 20.652C1163.13 20.7827 1162.87 21.0113 1162.68 21.338C1162.49 21.6553 1162.4 22.0987 1162.4 22.668V26H1160.91ZM1169 26.168C1168.13 26.168 1167.4 25.9533 1166.83 25.524C1166.26 25.0947 1165.94 24.5253 1165.85 23.816H1167.35C1167.43 24.1333 1167.6 24.4087 1167.88 24.642C1168.16 24.866 1168.53 24.978 1168.99 24.978C1169.44 24.978 1169.76 24.8847 1169.97 24.698C1170.17 24.5113 1170.28 24.2967 1170.28 24.054C1170.28 23.6993 1170.13 23.4613 1169.84 23.34C1169.56 23.2093 1169.17 23.0927 1168.67 22.99C1168.27 22.906 1167.88 22.794 1167.49 22.654C1167.11 22.514 1166.79 22.318 1166.52 22.066C1166.27 21.8047 1166.15 21.4547 1166.15 21.016C1166.15 20.4093 1166.38 19.9053 1166.85 19.504C1167.31 19.0933 1167.97 18.888 1168.81 18.888C1169.58 18.888 1170.21 19.0747 1170.68 19.448C1171.17 19.8213 1171.45 20.3487 1171.54 21.03H1170.11C1170.06 20.7313 1169.92 20.498 1169.69 20.33C1169.46 20.162 1169.16 20.078 1168.78 20.078C1168.41 20.078 1168.12 20.1573 1167.91 20.316C1167.71 20.4653 1167.6 20.6613 1167.6 20.904C1167.6 21.1467 1167.74 21.338 1168.02 21.478C1168.31 21.618 1168.69 21.744 1169.16 21.856C1169.62 21.9587 1170.05 22.08 1170.44 22.22C1170.85 22.3507 1171.17 22.5467 1171.41 22.808C1171.65 23.0693 1171.77 23.452 1171.77 23.956C1171.78 24.5907 1171.54 25.118 1171.03 25.538C1170.54 25.958 1169.86 26.168 1169 26.168Z" fill="#371C87"/>
<defs>
<clipPath id="clip0_406_994">
<rect width="24" height="24" fill="white" transform="translate(1078 10)"/>
</clipPath>
</defs>
</svg>
