<svg xmlns="http://www.w3.org/2000/svg" xmlns:xlink="http://www.w3.org/1999/xlink" width="500" zoomAndPan="magnify" viewBox="0 0 375 374.999991" height="500" preserveAspectRatio="xMidYMid meet" version="1.0"><defs><g/></defs><g fill="#3d00b7" fill-opacity="1"><g transform="translate(107.612744, 169.513494)"><g><path d="M 1.625 -13.03125 C 1.625 -25.988281 9.421875 -33.644531 14.621094 -34.976562 C 14.835938 -22.234375 9.023438 -4.945312 5.160156 0 L 25.988281 0 C 22.128906 -4.945312 16.316406 -22.234375 16.316406 -34.976562 C 21.550781 -33.644531 29.347656 -25.988281 29.347656 -13.03125 L 30.25 -13.03125 L 30.25 -36.097656 L 0.722656 -36.097656 L 0.722656 -13.03125 Z M 1.625 -13.03125 "/></g></g></g><g fill="#3d00b7" fill-opacity="1"><g transform="translate(138.581198, 169.513494)"><g><path d="M 0.542969 -18.046875 C 0.542969 -6.785156 7.6875 0.757812 17.542969 0.722656 C 27.398438 0.6875 34.546875 -6.785156 34.546875 -18.046875 C 34.546875 -29.3125 27.398438 -36.785156 17.542969 -36.820312 C 7.6875 -36.855469 0.542969 -29.3125 0.542969 -18.046875 Z M 13.464844 -34.871094 C 16.0625 -35.519531 19.382812 -29.238281 21.730469 -19.09375 C 24.078125 -9.023438 24.292969 -1.804688 21.695312 -1.117188 C 19.132812 -0.433594 15.414062 -6.75 13.03125 -16.894531 C 10.648438 -27.035156 10.828125 -34.183594 13.464844 -34.871094 Z M 13.464844 -34.871094 "/></g></g></g><g fill="#3d00b7" fill-opacity="1"><g transform="translate(173.664341, 169.513494)"><g><path d="M 13.175781 0 L 13.175781 -18.734375 C 15.089844 -16.28125 19.601562 -10.433594 19.601562 -5.449219 C 19.601562 -2.960938 19.09375 -1.261719 18.410156 0 L 32.378906 0 C 32.703125 -1.226562 32.742188 -2.128906 32.742188 -3.210938 C 32.742188 -18.914062 13.71875 -15.957031 13.71875 -21.441406 C 13.71875 -24.367188 16.242188 -26.640625 19.132812 -26.640625 C 24.582031 -26.640625 28.984375 -21.117188 30.863281 -16.605469 L 31.222656 -16.605469 L 31.222656 -35.195312 C 30.320312 -36.097656 28.480469 -36.820312 26.566406 -36.820312 C 19.816406 -36.820312 15.015625 -30.320312 13.175781 -24.582031 L 13.175781 -36.097656 L 1.082031 -36.097656 L 1.082031 0 Z M 13.175781 0 "/></g></g></g><g fill="#3d00b7" fill-opacity="1"><g transform="translate(207.12327, 169.513494)"><g><path d="M 1.082031 0 L 28.191406 0 L 28.191406 -18.046875 L 27.832031 -18.046875 C 26.53125 -8.195312 21.117188 -2.382812 14.078125 -1.40625 L 14.078125 -19.382812 C 16.027344 -18.769531 18.480469 -13.898438 18.988281 -9.890625 L 19.347656 -9.890625 L 19.347656 -29.5625 L 18.988281 -29.5625 C 18.480469 -25.558594 16.027344 -20.683594 14.078125 -20.070312 L 14.078125 -34.726562 C 20.972656 -34.074219 25.304688 -30.828125 27.832031 -21.117188 L 28.191406 -21.117188 L 28.191406 -36.097656 L 1.082031 -36.097656 Z M 1.082031 0 "/></g></g></g><g fill="#3d00b7" fill-opacity="1"><g transform="translate(236.395321, 169.513494)"><g><path d="M 1.082031 -36.097656 L 1.082031 0 L 8.230469 0 C 8.664062 -0.289062 9.097656 -1.335938 9.097656 -3.539062 C 9.097656 -11.007812 2.382812 -18.84375 2.382812 -30.359375 L 2.382812 -33.027344 L 16.136719 0 L 29.890625 0 L 29.890625 -36.097656 L 22.742188 -36.097656 C 22.308594 -35.808594 21.875 -34.761719 21.875 -32.558594 C 21.875 -25.085938 28.589844 -17.253906 28.589844 -5.738281 L 28.589844 -3.105469 L 14.726562 -36.097656 Z M 1.082031 -36.097656 "/></g></g></g><g fill="#3d00b7" fill-opacity="1"><g transform="translate(110.038525, 208.513491)"><g><path d="M 17.542969 0.722656 C 25.882812 0.722656 32.523438 -4.296875 31.222656 -10.683594 C 30.71875 -8.917969 27.941406 -8.050781 25.230469 -8.085938 C 18.011719 -8.195312 9.566406 -15.449219 9.566406 -28.265625 C 9.566406 -32.125 11.082031 -34.582031 13.535156 -34.582031 C 20.359375 -34.582031 23.535156 -18.734375 23.933594 -13.96875 L 24.292969 -13.96875 L 30.9375 -32.957031 C 30.9375 -32.957031 26.75 -36.820312 17.542969 -36.820312 C 7.328125 -36.820312 0.542969 -28.84375 0.542969 -18.046875 C 0.542969 -7.253906 7.328125 0.722656 17.542969 0.722656 Z M 17.542969 0.722656 "/></g></g></g><g fill="#3d00b7" fill-opacity="1"><g transform="translate(141.801038, 208.513491)"><g><path d="M 13.210938 0 L 13.210938 -5.8125 C 13.210938 -18.699219 4.621094 -25.449219 4.621094 -28.226562 C 9.097656 -22.164062 21.839844 -9.167969 17.761719 0 L 31.222656 0 C 31.550781 -1.226562 31.585938 -2.128906 31.585938 -3.210938 C 31.585938 -15.050781 18.121094 -15.269531 11.371094 -21.804688 C 13.429688 -19.855469 19.09375 -18.410156 22.308594 -18.410156 C 27.144531 -18.410156 31.296875 -21.730469 31.296875 -27.652344 C 31.296875 -32.8125 26.242188 -36.097656 21.117188 -36.097656 L 1.082031 -36.097656 L 1.082031 0 Z M 7.832031 -34.546875 C 14.332031 -34.546875 20.25 -31.550781 20.25 -25.269531 C 20.25 -23.101562 18.914062 -21.40625 16.859375 -21.40625 C 11.660156 -21.40625 3.355469 -30.753906 2.707031 -34.546875 Z M 7.832031 -34.546875 "/></g></g></g><g fill="#3d00b7" fill-opacity="1"><g transform="translate(173.924487, 208.513491)"><g><path d="M 1.082031 -23.859375 L 1.082031 0 L 13.535156 0 C 13.933594 -0.9375 14.078125 -1.949219 14.078125 -2.960938 C 14.078125 -7.472656 10.359375 -12.851562 7.652344 -18.046875 L 16.75 -18.046875 L 16.75 0 L 29.746094 0 L 29.746094 -36.097656 L 12.742188 -36.097656 C 3.574219 -36.097656 1.082031 -28.984375 1.082031 -23.859375 Z M 4.835938 -26.894531 C 4.835938 -29.3125 5.8125 -34.582031 11.625 -34.582031 C 13.96875 -34.582031 15.050781 -34.582031 16.75 -34.582031 L 16.75 -19.3125 L 7.039062 -19.3125 C 5.738281 -21.949219 4.835938 -24.511719 4.835938 -26.894531 Z M 4.835938 -26.894531 "/></g></g></g><g fill="#3d00b7" fill-opacity="1"><g transform="translate(204.712468, 208.513491)"><g><path d="M 14.078125 0 L 14.078125 -19.382812 C 16.027344 -18.769531 18.480469 -13.898438 18.988281 -9.890625 L 19.347656 -9.890625 L 19.347656 -29.5625 L 18.988281 -29.5625 C 18.480469 -25.558594 16.027344 -20.683594 14.078125 -20.070312 L 14.078125 -34.726562 C 20.972656 -34.039062 25.484375 -30.828125 28.011719 -21.117188 L 28.371094 -21.117188 L 28.371094 -36.097656 L 1.082031 -36.097656 L 1.082031 0 Z M 14.078125 0 "/></g></g></g><g fill="#3d00b7" fill-opacity="1"><g transform="translate(233.984519, 208.513491)"><g><path d="M 1.625 -13.03125 C 1.625 -25.988281 9.421875 -33.644531 14.621094 -34.976562 C 14.835938 -22.234375 9.023438 -4.945312 5.160156 0 L 25.988281 0 C 22.128906 -4.945312 16.316406 -22.234375 16.316406 -34.976562 C 21.550781 -33.644531 29.347656 -25.988281 29.347656 -13.03125 L 30.25 -13.03125 L 30.25 -36.097656 L 0.722656 -36.097656 L 0.722656 -13.03125 Z M 1.625 -13.03125 "/></g></g></g></svg>